<?xml version="1.0" encoding="utf-8"?>
<!-- Generator: Adobe Illustrator 24.2.3, SVG Export Plug-In . SVG Version: 6.00 Build 0)  -->
<svg version="1.1" id="Layer_1" xmlns="http://www.w3.org/2000/svg" xmlns:xlink="http://www.w3.org/1999/xlink" x="0px" y="0px"
	 viewBox="0 0 187 40" style="enable-background:new 0 0 187 40;" xml:space="preserve">
<style type="text/css">
	.st0{fill:#CBACF9;}
	.st1{fill:#FFFFFF;}
</style>
<path class="st0" d="M16.7,3.1h21.1l-15.5,23H1.2L16.7,3.1z"/>
<path class="st1" d="M17.6,28.2l-6,8.9h22.1l15.5-23H32.9l-9.5,14.1H17.6z"/>
<g>
	<path class="st1" d="M84.4,10.1H89l-6.6,16.6h-5l-4.5-11.1l-4.5,11.1h-4.9l-6.6-16.6h4.6l4.5,12.1l4.8-12.1h4.5l4.8,12.1L84.4,10.1
		z"/>
	<path class="st1" d="M89,21.3v-1.1c0-3.7,2.3-5.7,9.2-5.7c6.9,0,9.2,2,9.2,5.7v1.1c0,3.7-2.3,5.7-9.2,5.7C91.3,27,89,25,89,21.3z
		 M103.3,21.2v-0.9c0-1.9-1.2-2.7-5.1-2.7c-3.9,0-5,0.9-5,2.7v0.9c0,1.9,1.2,2.7,5,2.7C102.1,23.9,103.3,23.1,103.3,21.2z"/>
	<path class="st1" d="M114.3,17.4c1-2,3.2-3,7.4-2.9v3.4c-5.9,0-7.1,1-7.1,3.7v5.1h-3.9V14.8h3.6L114.3,17.4z"/>
	<path class="st1" d="M136.5,26.7l-5-5.2l-3.5,2.4v2.9h-3.9V9.6h3.9v10.3l7.6-5.1h5.9l-6.7,4.5l7,7.4H136.5z"/>
	<path class="st1" d="M144,11.1c0-1.3,0.7-1.9,2.2-1.9c1.5,0,2.2,0.6,2.2,1.9s-0.7,1.9-2.2,1.9C144.7,13,144,12.4,144,11.1z
		 M144.2,26.7V14.8h3.9v11.9H144.2z"/>
	<path class="st1" d="M160,12.7c-1.8,0-2.3,0.6-2.3,2.1h6.5v3.1h-6.5v8.8h-3.9v-8.8H151v-3.1h2.8c0-3.5,1.6-5.3,5.7-5.3h5.9v3.2H160
		z"/>
	<path class="st1" d="M179.8,14.8h4.5L174.9,31h-4.3l2.5-4l-7.5-12.2h4.7l4.9,8.7L179.8,14.8z"/>
</g>
</svg>
