<?xml version="1.0" encoding="utf-8"?>
<!-- Generator: Adobe Illustrator 24.2.3, SVG Export Plug-In . SVG Version: 6.00 Build 0)  -->
<svg version="1.1" id="Layer_1" xmlns="http://www.w3.org/2000/svg" xmlns:xlink="http://www.w3.org/1999/xlink" x="0px" y="0px"
	 viewBox="0 0 3500 2000" style="enable-background:new 0 0 3500 2000;" xml:space="preserve">
<style type="text/css">
	.st0{fill:#F4F7FD;}
	.st1{opacity:0.1;clip-path:url(#XMLID_2_);fill:#3C94F8;}
	.st2{clip-path:url(#XMLID_3_);fill:#102A54;}
	.st3{fill:#3C94F8;}
	.st4{fill:#FFFFFF;}
	.st5{fill:#102A54;}
	.st6{fill:#CCE6FF;}
	.st7{opacity:0.26;clip-path:url(#XMLID_4_);fill:#3C94F8;}
	.st8{opacity:0.18;clip-path:url(#XMLID_4_);fill:#3C94F8;}
	.st9{opacity:0.1;clip-path:url(#XMLID_4_);fill:#3C94F8;}
	.st10{opacity:0.14;fill:#3C94F8;}
	.st11{fill:#6CB597;}
	.st12{fill:#FFC0B1;}
	.st13{fill:#0C203F;}
	.st14{fill:#7FC0FF;}
	.st15{fill:#80C0FF;}
</style>
<g>
	<g>
		<path class="st0" d="M2063.8,430.37c-1.8,14.85-2.51,29.64-2.04,44.12c1.81,54.96,27.23,120.55,78.83,147.23
			c64.3,33.25,145.08-1.27,212.59,20.72c104.58,34.07,191.51,172.4,310.31,96.34c87.6-56.08,119.36-190.45,100.8-287.14
			c-32.61-169.85-186.51-298.88-358.66-305.26c-110.43-4.09-219.28,36.31-282.87,128.27
			C2092.16,318.94,2070.49,375.07,2063.8,430.37z"/>
		<g>
			<defs>
				<path id="XMLID_41_" d="M416.57,1849.58h2636.55h4.25c80.59-183.7,112.62-388.44,86.36-587.31
					c-13.54-102.52-43.92-207.42-114.88-282.65c-44.98-47.68-103.71-80.54-164.88-104.11c-150.04-57.81-320.09-62.07-472.84-11.83
					c-100.4,33.03-201.5,89.57-305.13,68.73c-45.15-9.08-86.12-32.45-124.15-58.41c-203.31-138.78-358.94-365.91-599.48-418.19
					c-155.56-33.81-321.35,16.2-450.84,108.8c-129.49,92.6-226.38,224.23-304.29,363.05
					C449.9,1208.04,369.91,1531.49,416.57,1849.58z"/>
			</defs>
			<use xlink:href="#XMLID_41_"  style="overflow:visible;fill:#F4F7FD;"/>
			<clipPath id="XMLID_2_">
				<use xlink:href="#XMLID_41_"  style="overflow:visible;"/>
			</clipPath>
			<path class="st1" d="M2636.57,1112.04c-133.28,82.45-243.15,196.9-353.77,307.93c-68.28,68.53-140.5,138.19-231.66,170.59
				c-67.64,24.04-141.11,25.74-212.8,21.93c-124.17-6.59-247.5-28.97-366.07-66.42c-144.68-45.7-281.91-113.6-428.14-154.07
				c-215.61-59.67-448.04-57.22-662.35,6.99c-6.65,168.46-14.29,337.32-20.94,505.79c187.55,14.43,375.78-5.32,563.54-16.61
				c667.71-40.15,1335.99,26.61,2003.97,3.43c87.1-3.02,176.35-3.58,262.89-14.34c3.08-14.43,1.61-31.23,2.01-46.03
				c0.45-16.7,0.79-33.4,1-50.1c0.43-33.4,0.38-66.81-0.15-100.21c-1.06-66.8-4.03-133.58-8.9-200.21
				c-8.1-110.61-21.45-220.84-40.02-330.18c-5.09-29.94-10.81-60.06-21.58-88.56c-6.88-18.19-15.67-42.32-36.07-48.9
				c-18.16-5.86-41.25-4.04-60.13-5.9c-29.27-2.87-58.78-2.97-88.09-0.63C2831.68,1015.11,2727.88,1055.55,2636.57,1112.04z"/>
		</g>
	</g>
	<g>
		<g>
			<defs>
				<path id="XMLID_34_" d="M2155.52,1145.15H936.55c-13.21,0-23.92-10.71-23.92-23.92V314.06c0-13.21,10.71-23.92,23.92-23.92
					h1218.97c13.21,0,23.92,10.71,23.92,23.92v807.18C2179.44,1134.45,2168.73,1145.15,2155.52,1145.15z"/>
			</defs>
			<use xlink:href="#XMLID_34_"  style="overflow:visible;fill:#CCE6FF;"/>
			<clipPath id="XMLID_3_">
				<use xlink:href="#XMLID_34_"  style="overflow:visible;"/>
			</clipPath>
			<rect x="850.3" y="241.53" class="st2" width="1386.56" height="141.94"/>
		</g>
		<g>
			<circle class="st3" cx="979.68" cy="340.77" r="17.33"/>
			<circle class="st4" cx="1042.62" cy="340.77" r="17.33"/>
			<circle class="st4" cx="1105.56" cy="340.77" r="17.33"/>
		</g>
		<path class="st5" d="M2139.13,1136.98H932.7c-17.48,0-31.69-14.22-31.69-31.69V310.65c0-17.48,14.22-31.69,31.69-31.69h1206.42
			c17.48,0,31.69,14.22,31.69,31.69v794.63C2170.82,1122.76,2156.6,1136.98,2139.13,1136.98z M932.7,281.96
			c-15.82,0-28.69,12.87-28.69,28.69v794.63c0,15.82,12.87,28.69,28.69,28.69h1206.42c15.82,0,28.69-12.87,28.69-28.69V310.65
			c0-15.82-12.87-28.69-28.69-28.69H932.7z"/>
	</g>
	<g>
		<g>
			<path class="st0" d="M1297.67,1062.39H981.26c-6.81,0-12.32-5.52-12.32-12.32V472.3c0-6.81,5.52-12.32,12.32-12.32h316.41
				c6.81,0,12.32,5.52,12.32,12.32v577.76C1309.99,1056.87,1304.47,1062.39,1297.67,1062.39z"/>
			<g>
				<path class="st6" d="M1116.48,656.83H995.19c-3.12,0-5.66-2.53-5.66-5.66V493.37c0-3.12,2.53-5.66,5.66-5.66h121.28
					c3.12,0,5.66,2.53,5.66,5.66v157.81C1122.13,654.3,1119.6,656.83,1116.48,656.83z"/>
				<g>
					<circle class="st6" cx="1156.01" cy="498.31" r="10.59"/>
					<path class="st6" d="M1289.64,494.5h-101.66c-1.25,0-2.26-1.01-2.26-2.26l0,0c0-1.25,1.01-2.26,2.26-2.26h101.66
						c1.25,0,2.26,1.01,2.26,2.26l0,0C1291.91,493.49,1290.89,494.5,1289.64,494.5z"/>
					<path class="st6" d="M1289.64,506.63h-101.66c-1.25,0-2.26-1.01-2.26-2.26l0,0c0-1.25,1.01-2.26,2.26-2.26h101.66
						c1.25,0,2.26,1.01,2.26,2.26l0,0C1291.91,505.62,1290.89,506.63,1289.64,506.63z"/>
					<path class="st6" d="M1289.64,518.76h-101.66c-1.25,0-2.26-1.01-2.26-2.26l0,0c0-1.25,1.01-2.26,2.26-2.26h101.66
						c1.25,0,2.26,1.01,2.26,2.26l0,0C1291.91,517.75,1290.89,518.76,1289.64,518.76z"/>
				</g>
				<g>
					
						<ellipse transform="matrix(0.1856 -0.9826 0.9826 0.1856 408.5341 1577.6385)" class="st6" cx="1156.01" cy="542.36" rx="10.59" ry="10.59"/>
					<path class="st6" d="M1289.64,538.56h-101.66c-1.25,0-2.26-1.01-2.26-2.26l0,0c0-1.25,1.01-2.26,2.26-2.26h101.66
						c1.25,0,2.26,1.01,2.26,2.26l0,0C1291.91,537.55,1290.89,538.56,1289.64,538.56z"/>
					<path class="st6" d="M1289.64,550.69h-101.66c-1.25,0-2.26-1.01-2.26-2.26l0,0c0-1.25,1.01-2.26,2.26-2.26h101.66
						c1.25,0,2.26,1.01,2.26,2.26l0,0C1291.91,549.68,1290.89,550.69,1289.64,550.69z"/>
					<path class="st6" d="M1289.64,562.82h-101.66c-1.25,0-2.26-1.01-2.26-2.26l0,0c0-1.25,1.01-2.26,2.26-2.26h101.66
						c1.25,0,2.26,1.01,2.26,2.26l0,0C1291.91,561.81,1290.89,562.82,1289.64,562.82z"/>
				</g>
				<g>
					
						<ellipse transform="matrix(0.1856 -0.9826 0.9826 0.1856 365.2428 1613.5189)" class="st6" cx="1156.01" cy="586.42" rx="10.59" ry="10.59"/>
					<path class="st6" d="M1289.64,582.62h-101.66c-1.25,0-2.26-1.01-2.26-2.26l0,0c0-1.25,1.01-2.26,2.26-2.26h101.66
						c1.25,0,2.26,1.01,2.26,2.26l0,0C1291.91,581.6,1290.89,582.62,1289.64,582.62z"/>
					<path class="st6" d="M1289.64,594.75h-101.66c-1.25,0-2.26-1.01-2.26-2.26l0,0c0-1.25,1.01-2.26,2.26-2.26h101.66
						c1.25,0,2.26,1.01,2.26,2.26l0,0C1291.91,593.73,1290.89,594.75,1289.64,594.75z"/>
					<path class="st6" d="M1289.64,606.88h-101.66c-1.25,0-2.26-1.01-2.26-2.26l0,0c0-1.25,1.01-2.26,2.26-2.26h101.66
						c1.25,0,2.26,1.01,2.26,2.26l0,0C1291.91,605.86,1290.89,606.88,1289.64,606.88z"/>
				</g>
				<g>
					
						<ellipse transform="matrix(0.8614 -0.508 0.508 0.8614 -160.0089 674.6496)" class="st6" cx="1156.01" cy="630.48" rx="10.59" ry="10.59"/>
					<path class="st6" d="M1289.64,626.67h-101.66c-1.25,0-2.26-1.01-2.26-2.26l0,0c0-1.25,1.01-2.26,2.26-2.26h101.66
						c1.25,0,2.26,1.01,2.26,2.26l0,0C1291.91,625.66,1290.89,626.67,1289.64,626.67z"/>
					<path class="st6" d="M1289.64,638.8h-101.66c-1.25,0-2.26-1.01-2.26-2.26l0,0c0-1.25,1.01-2.26,2.26-2.26h101.66
						c1.25,0,2.26,1.01,2.26,2.26l0,0C1291.91,637.79,1290.89,638.8,1289.64,638.8z"/>
					<path class="st6" d="M1289.64,650.93h-101.66c-1.25,0-2.26-1.01-2.26-2.26l0,0c0-1.25,1.01-2.26,2.26-2.26h101.66
						c1.25,0,2.26,1.01,2.26,2.26l0,0C1291.91,649.92,1290.89,650.93,1289.64,650.93z"/>
				</g>
			</g>
			<g>
				<path class="st6" d="M1115.22,843.71H993.93c-3.12,0-5.66-2.53-5.66-5.66V680.25c0-3.12,2.53-5.66,5.66-5.66h121.28
					c3.12,0,5.66,2.53,5.66,5.66v157.81C1120.87,841.18,1118.34,843.71,1115.22,843.71z"/>
				<g>
					<circle class="st6" cx="1154.75" cy="685.18" r="10.59"/>
					<path class="st6" d="M1288.38,681.38h-101.66c-1.25,0-2.26-1.01-2.26-2.26l0,0c0-1.25,1.01-2.26,2.26-2.26h101.66
						c1.25,0,2.26,1.01,2.26,2.26l0,0C1290.65,680.37,1289.63,681.38,1288.38,681.38z"/>
					<path class="st6" d="M1288.38,693.51h-101.66c-1.25,0-2.26-1.01-2.26-2.26l0,0c0-1.25,1.01-2.26,2.26-2.26h101.66
						c1.25,0,2.26,1.01,2.26,2.26l0,0C1290.65,692.5,1289.63,693.51,1288.38,693.51z"/>
					<path class="st6" d="M1288.38,705.64h-101.66c-1.25,0-2.26-1.01-2.26-2.26l0,0c0-1.25,1.01-2.26,2.26-2.26h101.66
						c1.25,0,2.26,1.01,2.26,2.26l0,0C1290.65,704.63,1289.63,705.64,1288.38,705.64z"/>
				</g>
				<g>
					
						<ellipse transform="matrix(0.2287 -0.9735 0.9735 0.2287 180.7347 1686.5947)" class="st6" cx="1154.75" cy="729.24" rx="10.59" ry="10.59"/>
					<path class="st6" d="M1288.38,725.44h-101.66c-1.25,0-2.26-1.01-2.26-2.26l0,0c0-1.25,1.01-2.26,2.26-2.26h101.66
						c1.25,0,2.26,1.01,2.26,2.26l0,0C1290.65,724.42,1289.63,725.44,1288.38,725.44z"/>
					<path class="st6" d="M1288.38,737.57h-101.66c-1.25,0-2.26-1.01-2.26-2.26l0,0c0-1.25,1.01-2.26,2.26-2.26h101.66
						c1.25,0,2.26,1.01,2.26,2.26l0,0C1290.65,736.55,1289.63,737.57,1288.38,737.57z"/>
					<path class="st6" d="M1288.38,749.7h-101.66c-1.25,0-2.26-1.01-2.26-2.26v0c0-1.25,1.01-2.26,2.26-2.26h101.66
						c1.25,0,2.26,1.01,2.26,2.26v0C1290.65,748.68,1289.63,749.7,1288.38,749.7z"/>
				</g>
				<g>
					
						<ellipse transform="matrix(0.2287 -0.9735 0.9735 0.2287 137.8459 1720.575)" class="st6" cx="1154.75" cy="773.29" rx="10.59" ry="10.59"/>
					<path class="st6" d="M1288.38,769.49h-101.66c-1.25,0-2.26-1.01-2.26-2.26l0,0c0-1.25,1.01-2.26,2.26-2.26h101.66
						c1.25,0,2.26,1.01,2.26,2.26l0,0C1290.65,768.48,1289.63,769.49,1288.38,769.49z"/>
					<path class="st6" d="M1288.38,781.62h-101.66c-1.25,0-2.26-1.01-2.26-2.26l0,0c0-1.25,1.01-2.26,2.26-2.26h101.66
						c1.25,0,2.26,1.01,2.26,2.26l0,0C1290.65,780.61,1289.63,781.62,1288.38,781.62z"/>
					<path class="st6" d="M1288.38,793.75h-101.66c-1.25,0-2.26-1.01-2.26-2.26l0,0c0-1.25,1.01-2.26,2.26-2.26h101.66
						c1.25,0,2.26,1.01,2.26,2.26l0,0C1290.65,792.74,1289.63,793.75,1288.38,793.75z"/>
				</g>
				<g>
					
						<ellipse transform="matrix(0.7071 -0.7071 0.7071 0.7071 -239.7357 1055.9299)" class="st6" cx="1154.75" cy="817.35" rx="10.59" ry="10.59"/>
					<path class="st6" d="M1288.38,813.55h-101.66c-1.25,0-2.26-1.01-2.26-2.26l0,0c0-1.25,1.01-2.26,2.26-2.26h101.66
						c1.25,0,2.26,1.01,2.26,2.26l0,0C1290.65,812.54,1289.63,813.55,1288.38,813.55z"/>
					<path class="st6" d="M1288.38,825.68h-101.66c-1.25,0-2.26-1.01-2.26-2.26l0,0c0-1.25,1.01-2.26,2.26-2.26h101.66
						c1.25,0,2.26,1.01,2.26,2.26l0,0C1290.65,824.67,1289.63,825.68,1288.38,825.68z"/>
					<path class="st6" d="M1288.38,837.81h-101.66c-1.25,0-2.26-1.01-2.26-2.26l0,0c0-1.25,1.01-2.26,2.26-2.26h101.66
						c1.25,0,2.26,1.01,2.26,2.26l0,0C1290.65,836.8,1289.63,837.81,1288.38,837.81z"/>
				</g>
			</g>
			<g>
				<path class="st6" d="M1113.96,1030.58H992.67c-3.12,0-5.66-2.53-5.66-5.66V867.12c0-3.12,2.53-5.66,5.66-5.66h121.28
					c3.12,0,5.66,2.53,5.66,5.66v157.81C1119.61,1028.05,1117.08,1030.58,1113.96,1030.58z"/>
				<g>
					<circle class="st6" cx="1153.49" cy="872.06" r="10.59"/>
					<path class="st6" d="M1287.12,868.26h-101.66c-1.25,0-2.26-1.01-2.26-2.26l0,0c0-1.25,1.01-2.26,2.26-2.26h101.66
						c1.25,0,2.26,1.01,2.26,2.26l0,0C1289.39,867.24,1288.37,868.26,1287.12,868.26z"/>
					<path class="st6" d="M1287.12,880.39h-101.66c-1.25,0-2.26-1.01-2.26-2.26l0,0c0-1.25,1.01-2.26,2.26-2.26h101.66
						c1.25,0,2.26,1.01,2.26,2.26l0,0C1289.39,879.37,1288.37,880.39,1287.12,880.39z"/>
					<path class="st6" d="M1287.12,892.52h-101.66c-1.25,0-2.26-1.01-2.26-2.26l0,0c0-1.25,1.01-2.26,2.26-2.26h101.66
						c1.25,0,2.26,1.01,2.26,2.26l0,0C1289.39,891.5,1288.37,892.52,1287.12,892.52z"/>
				</g>
				<g>
					
						<ellipse transform="matrix(0.2287 -0.9735 0.9735 0.2287 -2.1605 1829.5026)" class="st6" cx="1153.49" cy="916.11" rx="10.59" ry="10.59"/>
					<path class="st6" d="M1287.12,912.31h-101.66c-1.25,0-2.26-1.01-2.26-2.26v0c0-1.25,1.01-2.26,2.26-2.26h101.66
						c1.25,0,2.26,1.01,2.26,2.26v0C1289.39,911.3,1288.37,912.31,1287.12,912.31z"/>
					<path class="st6" d="M1287.12,924.44h-101.66c-1.25,0-2.26-1.01-2.26-2.26l0,0c0-1.25,1.01-2.26,2.26-2.26h101.66
						c1.25,0,2.26,1.01,2.26,2.26l0,0C1289.39,923.43,1288.37,924.44,1287.12,924.44z"/>
					<path class="st6" d="M1287.12,936.57h-101.66c-1.25,0-2.26-1.01-2.26-2.26l0,0c0-1.25,1.01-2.26,2.26-2.26h101.66
						c1.25,0,2.26,1.01,2.26,2.26l0,0C1289.39,935.56,1288.37,936.57,1287.12,936.57z"/>
				</g>
				<g>
					
						<ellipse transform="matrix(0.2287 -0.9735 0.9735 0.2287 -45.0493 1863.4828)" class="st6" cx="1153.49" cy="960.17" rx="10.59" ry="10.59"/>
					<path class="st6" d="M1287.12,956.37h-101.66c-1.25,0-2.26-1.01-2.26-2.26l0,0c0-1.25,1.01-2.26,2.26-2.26h101.66
						c1.25,0,2.26,1.01,2.26,2.26l0,0C1289.39,955.36,1288.37,956.37,1287.12,956.37z"/>
					<path class="st6" d="M1287.12,968.5h-101.66c-1.25,0-2.26-1.01-2.26-2.26l0,0c0-1.25,1.01-2.26,2.26-2.26h101.66
						c1.25,0,2.26,1.01,2.26,2.26l0,0C1289.39,967.49,1288.37,968.5,1287.12,968.5z"/>
					<path class="st6" d="M1287.12,980.63h-101.66c-1.25,0-2.26-1.01-2.26-2.26l0,0c0-1.25,1.01-2.26,2.26-2.26h101.66
						c1.25,0,2.26,1.01,2.26,2.26l0,0C1289.39,979.62,1288.37,980.63,1287.12,980.63z"/>
				</g>
				<g>
					
						<ellipse transform="matrix(0.7071 -0.7071 0.7071 0.7071 -372.2465 1109.7734)" class="st6" cx="1153.49" cy="1004.23" rx="10.59" ry="10.59"/>
					<path class="st6" d="M1287.12,1000.43h-101.66c-1.25,0-2.26-1.01-2.26-2.26l0,0c0-1.25,1.01-2.26,2.26-2.26h101.66
						c1.25,0,2.26,1.01,2.26,2.26l0,0C1289.39,999.41,1288.37,1000.43,1287.12,1000.43z"/>
					<path class="st6" d="M1287.12,1012.56h-101.66c-1.25,0-2.26-1.01-2.26-2.26l0,0c0-1.25,1.01-2.26,2.26-2.26h101.66
						c1.25,0,2.26,1.01,2.26,2.26l0,0C1289.39,1011.54,1288.37,1012.56,1287.12,1012.56z"/>
					<path class="st6" d="M1287.12,1024.69h-101.66c-1.25,0-2.26-1.01-2.26-2.26l0,0c0-1.25,1.01-2.26,2.26-2.26h101.66
						c1.25,0,2.26,1.01,2.26,2.26l0,0C1289.39,1023.67,1288.37,1024.69,1287.12,1024.69z"/>
				</g>
			</g>
			<g>
				<path class="st0" d="M1095.83,575.42h-81.99c-2.61,0-4.72-2.11-4.72-4.72v-64.28c0-2.61,2.11-4.72,4.72-4.72h81.99
					c2.61,0,4.72,2.11,4.72,4.72v64.28C1100.55,573.31,1098.44,575.42,1095.83,575.42z"/>
				<path class="st0" d="M1097.74,592.48h-85.81c-1.55,0-2.81-1.26-2.81-2.81v-0.44c0-1.55,1.26-2.81,2.81-2.81h85.81
					c1.55,0,2.81,1.26,2.81,2.81v0.44C1100.55,591.22,1099.29,592.48,1097.74,592.48z"/>
				<path class="st0" d="M1097.74,605.38h-85.81c-1.55,0-2.81-1.26-2.81-2.81v-0.44c0-1.55,1.26-2.81,2.81-2.81h85.81
					c1.55,0,2.81,1.26,2.81,2.81v0.44C1100.55,604.13,1099.29,605.38,1097.74,605.38z"/>
				<path class="st0" d="M1097.74,618.28h-85.81c-1.55,0-2.81-1.26-2.81-2.81v-0.44c0-1.55,1.26-2.81,2.81-2.81h85.81
					c1.55,0,2.81,1.26,2.81,2.81v0.44C1100.55,617.03,1099.29,618.28,1097.74,618.28z"/>
				<path class="st0" d="M1097.74,631.18h-85.81c-1.55,0-2.81-1.26-2.81-2.81v-0.44c0-1.55,1.26-2.81,2.81-2.81h85.81
					c1.55,0,2.81,1.26,2.81,2.81v0.44C1100.55,629.93,1099.29,631.18,1097.74,631.18z"/>
				<path class="st0" d="M1097.74,644.09h-85.81c-1.55,0-2.81-1.26-2.81-2.81v-0.44c0-1.55,1.26-2.81,2.81-2.81h85.81
					c1.55,0,2.81,1.26,2.81,2.81v0.44C1100.55,642.83,1099.29,644.09,1097.74,644.09z"/>
			</g>
			<g>
				<path class="st0" d="M1095.83,761.68h-81.99c-2.61,0-4.72-2.11-4.72-4.72v-64.28c0-2.61,2.11-4.72,4.72-4.72h81.99
					c2.61,0,4.72,2.11,4.72,4.72v64.28C1100.55,759.56,1098.44,761.68,1095.83,761.68z"/>
				<path class="st0" d="M1097.74,778.74h-85.81c-1.55,0-2.81-1.26-2.81-2.81v-0.44c0-1.55,1.26-2.81,2.81-2.81h85.81
					c1.55,0,2.81,1.26,2.81,2.81v0.44C1100.55,777.48,1099.29,778.74,1097.74,778.74z"/>
				<path class="st0" d="M1097.74,791.64h-85.81c-1.55,0-2.81-1.26-2.81-2.81v-0.44c0-1.55,1.26-2.81,2.81-2.81h85.81
					c1.55,0,2.81,1.26,2.81,2.81v0.44C1100.55,790.38,1099.29,791.64,1097.74,791.64z"/>
				<path class="st0" d="M1097.74,804.54h-85.81c-1.55,0-2.81-1.26-2.81-2.81v-0.44c0-1.55,1.26-2.81,2.81-2.81h85.81
					c1.55,0,2.81,1.26,2.81,2.81v0.44C1100.55,803.28,1099.29,804.54,1097.74,804.54z"/>
				<path class="st0" d="M1097.74,817.44h-85.81c-1.55,0-2.81-1.26-2.81-2.81v-0.44c0-1.55,1.26-2.81,2.81-2.81h85.81
					c1.55,0,2.81,1.26,2.81,2.81v0.44C1100.55,816.18,1099.29,817.44,1097.74,817.44z"/>
				<path class="st0" d="M1097.74,830.34h-85.81c-1.55,0-2.81-1.26-2.81-2.81v-0.44c0-1.55,1.26-2.81,2.81-2.81h85.81
					c1.55,0,2.81,1.26,2.81,2.81v0.44C1100.55,829.08,1099.29,830.34,1097.74,830.34z"/>
			</g>
			<g>
				<path class="st0" d="M1095.83,947.93h-81.99c-2.61,0-4.72-2.11-4.72-4.72v-64.28c0-2.61,2.11-4.72,4.72-4.72h81.99
					c2.61,0,4.72,2.11,4.72,4.72v64.28C1100.55,945.82,1098.44,947.93,1095.83,947.93z"/>
				<path class="st0" d="M1097.74,965h-85.81c-1.55,0-2.81-1.26-2.81-2.81v-0.44c0-1.55,1.26-2.81,2.81-2.81h85.81
					c1.55,0,2.81,1.26,2.81,2.81v0.44C1100.55,963.74,1099.29,965,1097.74,965z"/>
				<path class="st0" d="M1097.74,977.9h-85.81c-1.55,0-2.81-1.26-2.81-2.81v-0.44c0-1.55,1.26-2.81,2.81-2.81h85.81
					c1.55,0,2.81,1.26,2.81,2.81v0.44C1100.55,976.64,1099.29,977.9,1097.74,977.9z"/>
				<path class="st0" d="M1097.74,990.8h-85.81c-1.55,0-2.81-1.26-2.81-2.81v-0.44c0-1.55,1.26-2.81,2.81-2.81h85.81
					c1.55,0,2.81,1.26,2.81,2.81v0.44C1100.55,989.54,1099.29,990.8,1097.74,990.8z"/>
				<path class="st0" d="M1097.74,1003.7h-85.81c-1.55,0-2.81-1.26-2.81-2.81v-0.44c0-1.55,1.26-2.81,2.81-2.81h85.81
					c1.55,0,2.81,1.26,2.81,2.81v0.44C1100.55,1002.44,1099.29,1003.7,1097.74,1003.7z"/>
				<path class="st0" d="M1097.74,1016.6h-85.81c-1.55,0-2.81-1.26-2.81-2.81v-0.44c0-1.55,1.26-2.81,2.81-2.81h85.81
					c1.55,0,2.81,1.26,2.81,2.81v0.44C1100.55,1015.34,1099.29,1016.6,1097.74,1016.6z"/>
			</g>
		</g>
		<g>
			<path class="st0" d="M2090.57,1062.39h-316.41c-6.81,0-12.32-5.52-12.32-12.32V472.3c0-6.81,5.52-12.32,12.32-12.32h316.41
				c6.81,0,12.32,5.52,12.32,12.32v577.76C2102.9,1056.87,2097.38,1062.39,2090.57,1062.39z"/>
			<g>
				<path class="st6" d="M2072.76,487.74h-98.99c-1.81,0-3.27-1.46-3.27-3.27l0,0c0-1.81,1.46-3.27,3.27-3.27h98.99
					c1.81,0,3.27,1.46,3.27,3.27l0,0C2076.04,486.27,2074.57,487.74,2072.76,487.74z"/>
				<path class="st6" d="M2072.76,502.7h-98.99c-1.81,0-3.27-1.46-3.27-3.27l0,0c0-1.81,1.46-3.27,3.27-3.27h98.99
					c1.81,0,3.27,1.46,3.27,3.27l0,0C2076.04,501.23,2074.57,502.7,2072.76,502.7z"/>
				<path class="st6" d="M2072.76,517.66h-98.99c-1.81,0-3.27-1.46-3.27-3.27l0,0c0-1.81,1.46-3.27,3.27-3.27h98.99
					c1.81,0,3.27,1.46,3.27,3.27l0,0C2076.04,516.19,2074.57,517.66,2072.76,517.66z"/>
				<path class="st6" d="M2072.76,532.61h-98.99c-1.81,0-3.27-1.46-3.27-3.27l0,0c0-1.81,1.46-3.27,3.27-3.27h98.99
					c1.81,0,3.27,1.46,3.27,3.27l0,0C2076.04,531.15,2074.57,532.61,2072.76,532.61z"/>
				<path class="st6" d="M2072.76,547.57h-98.99c-1.81,0-3.27-1.46-3.27-3.27l0,0c0-1.81,1.46-3.27,3.27-3.27h98.99
					c1.81,0,3.27,1.46,3.27,3.27l0,0C2076.04,546.11,2074.57,547.57,2072.76,547.57z"/>
				<path class="st6" d="M2072.76,562.53h-98.99c-1.81,0-3.27-1.46-3.27-3.27l0,0c0-1.81,1.46-3.27,3.27-3.27h98.99
					c1.81,0,3.27,1.46,3.27,3.27l0,0C2076.04,561.07,2074.57,562.53,2072.76,562.53z"/>
				<path class="st6" d="M2072.76,577.49h-98.99c-1.81,0-3.27-1.46-3.27-3.27l0,0c0-1.81,1.46-3.27,3.27-3.27h98.99
					c1.81,0,3.27,1.46,3.27,3.27l0,0C2076.04,576.03,2074.57,577.49,2072.76,577.49z"/>
				<path class="st6" d="M2072.76,861.92h-98.99c-1.81,0-3.27-1.46-3.27-3.27l0,0c0-1.81,1.46-3.27,3.27-3.27h98.99
					c1.81,0,3.27,1.46,3.27,3.27l0,0C2076.04,860.46,2074.57,861.92,2072.76,861.92z"/>
				<path class="st6" d="M2072.76,876.88h-98.99c-1.81,0-3.27-1.46-3.27-3.27l0,0c0-1.81,1.46-3.27,3.27-3.27h98.99
					c1.81,0,3.27,1.46,3.27,3.27l0,0C2076.04,875.42,2074.57,876.88,2072.76,876.88z"/>
				<path class="st6" d="M2072.76,891.84h-98.99c-1.81,0-3.27-1.46-3.27-3.27l0,0c0-1.81,1.46-3.27,3.27-3.27h98.99
					c1.81,0,3.27,1.46,3.27,3.27l0,0C2076.04,890.38,2074.57,891.84,2072.76,891.84z"/>
				<path class="st6" d="M2072.76,906.8h-98.99c-1.81,0-3.27-1.46-3.27-3.27l0,0c0-1.81,1.46-3.27,3.27-3.27h98.99
					c1.81,0,3.27,1.46,3.27,3.27l0,0C2076.04,905.34,2074.57,906.8,2072.76,906.8z"/>
				<path class="st6" d="M2072.76,921.76h-98.99c-1.81,0-3.27-1.46-3.27-3.27l0,0c0-1.81,1.46-3.27,3.27-3.27h98.99
					c1.81,0,3.27,1.46,3.27,3.27l0,0C2076.04,920.3,2074.57,921.76,2072.76,921.76z"/>
				<path class="st6" d="M2072.76,936.72h-98.99c-1.81,0-3.27-1.46-3.27-3.27l0,0c0-1.81,1.46-3.27,3.27-3.27h98.99
					c1.81,0,3.27,1.46,3.27,3.27l0,0C2076.04,935.26,2074.57,936.72,2072.76,936.72z"/>
				<path class="st6" d="M2072.76,951.68h-98.99c-1.81,0-3.27-1.46-3.27-3.27l0,0c0-1.81,1.46-3.27,3.27-3.27h98.99
					c1.81,0,3.27,1.46,3.27,3.27l0,0C2076.04,950.22,2074.57,951.68,2072.76,951.68z"/>
				<path class="st6" d="M2072.76,968.47h-98.99c-1.81,0-3.27-1.46-3.27-3.27l0,0c0-1.81,1.46-3.27,3.27-3.27h98.99
					c1.81,0,3.27,1.46,3.27,3.27l0,0C2076.04,967.01,2074.57,968.47,2072.76,968.47z"/>
				<path class="st6" d="M2072.76,983.43h-98.99c-1.81,0-3.27-1.46-3.27-3.27l0,0c0-1.81,1.46-3.27,3.27-3.27h98.99
					c1.81,0,3.27,1.46,3.27,3.27l0,0C2076.04,981.97,2074.57,983.43,2072.76,983.43z"/>
				<path class="st6" d="M2072.76,998.39h-98.99c-1.81,0-3.27-1.46-3.27-3.27l0,0c0-1.81,1.46-3.27,3.27-3.27h98.99
					c1.81,0,3.27,1.46,3.27,3.27l0,0C2076.04,996.93,2074.57,998.39,2072.76,998.39z"/>
				<path class="st6" d="M2072.76,1013.35h-98.99c-1.81,0-3.27-1.46-3.27-3.27l0,0c0-1.81,1.46-3.27,3.27-3.27h98.99
					c1.81,0,3.27,1.46,3.27,3.27l0,0C2076.04,1011.89,2074.57,1013.35,2072.76,1013.35z"/>
				<path class="st6" d="M2072.76,1028.31h-98.99c-1.81,0-3.27-1.46-3.27-3.27l0,0c0-1.81,1.46-3.27,3.27-3.27h98.99
					c1.81,0,3.27,1.46,3.27,3.27l0,0C2076.04,1026.85,2074.57,1028.31,2072.76,1028.31z"/>
				<path class="st6" d="M2072.76,1043.27h-98.99c-1.81,0-3.27-1.46-3.27-3.27l0,0c0-1.81,1.46-3.27,3.27-3.27h98.99
					c1.81,0,3.27,1.46,3.27,3.27l0,0C2076.04,1041.81,2074.57,1043.27,2072.76,1043.27z"/>
				<path class="st6" d="M2072.76,592.45h-98.99c-1.81,0-3.27-1.46-3.27-3.27l0,0c0-1.81,1.46-3.27,3.27-3.27h98.99
					c1.81,0,3.27,1.46,3.27,3.27l0,0C2076.04,590.99,2074.57,592.45,2072.76,592.45z"/>
				<path class="st6" d="M2072.76,607.41h-98.99c-1.81,0-3.27-1.46-3.27-3.27l0,0c0-1.81,1.46-3.27,3.27-3.27h98.99
					c1.81,0,3.27,1.46,3.27,3.27l0,0C2076.04,605.95,2074.57,607.41,2072.76,607.41z"/>
				<path class="st6" d="M2072.76,622.37h-98.99c-1.81,0-3.27-1.46-3.27-3.27l0,0c0-1.81,1.46-3.27,3.27-3.27h98.99
					c1.81,0,3.27,1.46,3.27,3.27l0,0C2076.04,620.91,2074.57,622.37,2072.76,622.37z"/>
				<path class="st6" d="M2072.76,637.33h-98.99c-1.81,0-3.27-1.46-3.27-3.27l0,0c0-1.81,1.46-3.27,3.27-3.27h98.99
					c1.81,0,3.27,1.46,3.27,3.27l0,0C2076.04,635.87,2074.57,637.33,2072.76,637.33z"/>
				<path class="st6" d="M2072.76,652.29h-98.99c-1.81,0-3.27-1.46-3.27-3.27l0,0c0-1.81,1.46-3.27,3.27-3.27h98.99
					c1.81,0,3.27,1.46,3.27,3.27l0,0C2076.04,650.83,2074.57,652.29,2072.76,652.29z"/>
				<path class="st6" d="M2072.76,667.25h-98.99c-1.81,0-3.27-1.46-3.27-3.27v0c0-1.81,1.46-3.27,3.27-3.27h98.99
					c1.81,0,3.27,1.46,3.27,3.27v0C2076.04,665.79,2074.57,667.25,2072.76,667.25z"/>
				<path class="st6" d="M2072.76,682.21h-98.99c-1.81,0-3.27-1.46-3.27-3.27l0,0c0-1.81,1.46-3.27,3.27-3.27h98.99
					c1.81,0,3.27,1.46,3.27,3.27l0,0C2076.04,680.74,2074.57,682.21,2072.76,682.21z"/>
				<path class="st6" d="M2072.76,697.17h-98.99c-1.81,0-3.27-1.46-3.27-3.27v0c0-1.81,1.46-3.27,3.27-3.27h98.99
					c1.81,0,3.27,1.46,3.27,3.27v0C2076.04,695.7,2074.57,697.17,2072.76,697.17z"/>
				<path class="st6" d="M2072.76,712.13h-98.99c-1.81,0-3.27-1.46-3.27-3.27l0,0c0-1.81,1.46-3.27,3.27-3.27h98.99
					c1.81,0,3.27,1.46,3.27,3.27l0,0C2076.04,710.66,2074.57,712.13,2072.76,712.13z"/>
				<path class="st6" d="M1938.97,746.01h-146.99c-1.81,0-3.27-1.46-3.27-3.27l0,0c0-1.81,1.46-3.27,3.27-3.27h146.99
					c1.81,0,3.27,1.46,3.27,3.27l0,0C1942.24,744.55,1940.77,746.01,1938.97,746.01z"/>
				<path class="st6" d="M1938.97,760.97h-146.99c-1.81,0-3.27-1.46-3.27-3.27l0,0c0-1.81,1.46-3.27,3.27-3.27h146.99
					c1.81,0,3.27,1.46,3.27,3.27l0,0C1942.24,759.51,1940.77,760.97,1938.97,760.97z"/>
				<path class="st6" d="M1938.97,775.93h-146.99c-1.81,0-3.27-1.46-3.27-3.27l0,0c0-1.81,1.46-3.27,3.27-3.27h146.99
					c1.81,0,3.27,1.46,3.27,3.27l0,0C1942.24,774.47,1940.77,775.93,1938.97,775.93z"/>
				<path class="st6" d="M1938.97,790.89h-146.99c-1.81,0-3.27-1.46-3.27-3.27l0,0c0-1.81,1.46-3.27,3.27-3.27h146.99
					c1.81,0,3.27,1.46,3.27,3.27l0,0C1942.24,789.43,1940.77,790.89,1938.97,790.89z"/>
				<path class="st6" d="M1938.97,805.85h-146.99c-1.81,0-3.27-1.46-3.27-3.27l0,0c0-1.81,1.46-3.27,3.27-3.27h146.99
					c1.81,0,3.27,1.46,3.27,3.27l0,0C1942.24,804.39,1940.77,805.85,1938.97,805.85z"/>
				<path class="st6" d="M1938.97,820.81h-146.99c-1.81,0-3.27-1.46-3.27-3.27l0,0c0-1.81,1.46-3.27,3.27-3.27h146.99
					c1.81,0,3.27,1.46,3.27,3.27l0,0C1942.24,819.34,1940.77,820.81,1938.97,820.81z"/>
				<path class="st6" d="M1938.97,835.77h-146.99c-1.81,0-3.27-1.46-3.27-3.27l0,0c0-1.81,1.46-3.27,3.27-3.27h146.99
					c1.81,0,3.27,1.46,3.27,3.27l0,0C1942.24,834.3,1940.77,835.77,1938.97,835.77z"/>
				<path class="st6" d="M1938.97,850.73h-146.99c-1.81,0-3.27-1.46-3.27-3.27l0,0c0-1.81,1.46-3.27,3.27-3.27h146.99
					c1.81,0,3.27,1.46,3.27,3.27l0,0C1942.24,849.26,1940.77,850.73,1938.97,850.73z"/>
				<path class="st6" d="M1938.97,865.69h-146.99c-1.81,0-3.27-1.46-3.27-3.27l0,0c0-1.81,1.46-3.27,3.27-3.27h146.99
					c1.81,0,3.27,1.46,3.27,3.27l0,0C1942.24,864.22,1940.77,865.69,1938.97,865.69z"/>
				<path class="st6" d="M1938.97,880.65h-146.99c-1.81,0-3.27-1.46-3.27-3.27l0,0c0-1.81,1.46-3.27,3.27-3.27h146.99
					c1.81,0,3.27,1.46,3.27,3.27l0,0C1942.24,879.18,1940.77,880.65,1938.97,880.65z"/>
				<path class="st6" d="M1938.97,895.61h-146.99c-1.81,0-3.27-1.46-3.27-3.27l0,0c0-1.81,1.46-3.27,3.27-3.27h146.99
					c1.81,0,3.27,1.46,3.27,3.27l0,0C1942.24,894.14,1940.77,895.61,1938.97,895.61z"/>
				<path class="st6" d="M1938.97,910.57h-146.99c-1.81,0-3.27-1.46-3.27-3.27l0,0c0-1.81,1.46-3.27,3.27-3.27h146.99
					c1.81,0,3.27,1.46,3.27,3.27l0,0C1942.24,909.1,1940.77,910.57,1938.97,910.57z"/>
				<path class="st6" d="M1938.97,925.52h-146.99c-1.81,0-3.27-1.46-3.27-3.27l0,0c0-1.81,1.46-3.27,3.27-3.27h146.99
					c1.81,0,3.27,1.46,3.27,3.27l0,0C1942.24,924.06,1940.77,925.52,1938.97,925.52z"/>
				<path class="st6" d="M1938.97,940.48h-146.99c-1.81,0-3.27-1.46-3.27-3.27l0,0c0-1.81,1.46-3.27,3.27-3.27h146.99
					c1.81,0,3.27,1.46,3.27,3.27l0,0C1942.24,939.02,1940.77,940.48,1938.97,940.48z"/>
				<path class="st6" d="M1938.97,955.44h-146.99c-1.81,0-3.27-1.46-3.27-3.27l0,0c0-1.81,1.46-3.27,3.27-3.27h146.99
					c1.81,0,3.27,1.46,3.27,3.27l0,0C1942.24,953.98,1940.77,955.44,1938.97,955.44z"/>
				<path class="st6" d="M1938.97,970.4h-146.99c-1.81,0-3.27-1.46-3.27-3.27l0,0c0-1.81,1.46-3.27,3.27-3.27h146.99
					c1.81,0,3.27,1.46,3.27,3.27l0,0C1942.24,968.94,1940.77,970.4,1938.97,970.4z"/>
				<path class="st6" d="M1938.97,984.38h-146.99c-1.81,0-3.27-1.46-3.27-3.27l0,0c0-1.81,1.46-3.27,3.27-3.27h146.99
					c1.81,0,3.27,1.46,3.27,3.27l0,0C1942.24,982.91,1940.77,984.38,1938.97,984.38z"/>
				<path class="st6" d="M1938.97,999.33h-146.99c-1.81,0-3.27-1.46-3.27-3.27l0,0c0-1.81,1.46-3.27,3.27-3.27h146.99
					c1.81,0,3.27,1.46,3.27,3.27l0,0C1942.24,997.87,1940.77,999.33,1938.97,999.33z"/>
				<path class="st6" d="M1938.97,1014.29h-146.99c-1.81,0-3.27-1.46-3.27-3.27l0,0c0-1.81,1.46-3.27,3.27-3.27h146.99
					c1.81,0,3.27,1.46,3.27,3.27l0,0C1942.24,1012.83,1940.77,1014.29,1938.97,1014.29z"/>
				<path class="st6" d="M1938.97,1029.25h-146.99c-1.81,0-3.27-1.46-3.27-3.27l0,0c0-1.81,1.46-3.27,3.27-3.27h146.99
					c1.81,0,3.27,1.46,3.27,3.27l0,0C1942.24,1027.79,1940.77,1029.25,1938.97,1029.25z"/>
				<path class="st6" d="M1938.97,1044.21h-146.99c-1.81,0-3.27-1.46-3.27-3.27l0,0c0-1.81,1.46-3.27,3.27-3.27h146.99
					c1.81,0,3.27,1.46,3.27,3.27l0,0C1942.24,1042.75,1940.77,1044.21,1938.97,1044.21z"/>
				<path class="st6" d="M2073.23,836.58h-99.92c-1.55,0-2.8-1.26-2.8-2.8v-92.32c0-1.55,1.26-2.8,2.8-2.8h99.92
					c1.55,0,2.8,1.26,2.8,2.8v92.32C2076.04,835.32,2074.78,836.58,2073.23,836.58z"/>
				<g>
					<path class="st6" d="M1938.45,712.13h-145.97c-2.09,0-3.78-1.69-3.78-3.78V484.98c0-2.09,1.69-3.78,3.78-3.78h145.97
						c2.09,0,3.78,1.69,3.78,3.78v223.36C1942.24,710.43,1940.54,712.13,1938.45,712.13z"/>
					<g>
						<path class="st0" d="M1925.52,562.53h-120.09c-1.26,0-2.28-1.02-2.28-2.28v-62.38c0-1.26,1.02-2.28,2.28-2.28h120.09
							c1.26,0,2.28,1.02,2.28,2.28v62.38C1927.8,561.51,1926.78,562.53,1925.52,562.53z"/>
						<path class="st0" d="M1925.52,637.61h-120.09c-1.26,0-2.28-1.02-2.28-2.28v-62.38c0-1.26,1.02-2.28,2.28-2.28h120.09
							c1.26,0,2.28,1.02,2.28,2.28v62.38C1927.8,636.59,1926.78,637.61,1925.52,637.61z"/>
						<path class="st0" d="M1859.83,701.33h-54.72c-1.09,0-1.98-0.89-1.98-1.98v-51.61c0-1.09,0.89-1.98,1.98-1.98h54.72
							c1.09,0,1.98,0.89,1.98,1.98v51.61C1861.82,700.44,1860.93,701.33,1859.83,701.33z"/>
						<path class="st0" d="M1925.79,701.33h-56.1c-1.11,0-2.01-0.9-2.01-2.01v-51.57c0-1.11,0.9-2.01,2.01-2.01h56.1
							c1.11,0,2.01,0.9,2.01,2.01v51.57C1927.8,700.43,1926.9,701.33,1925.79,701.33z"/>
					</g>
				</g>
			</g>
		</g>
		<g>
			<path class="st0" d="M1694.12,1062.39h-316.41c-6.81,0-12.32-5.52-12.32-12.32V472.3c0-6.81,5.52-12.32,12.32-12.32h316.41
				c6.81,0,12.32,5.52,12.32,12.32v577.76C1706.44,1056.87,1700.93,1062.39,1694.12,1062.39z"/>
			<path class="st6" d="M1521.15,622.15H1398.1c-3.14,0-5.68-2.54-5.68-5.68V493.41c0-3.14,2.54-5.68,5.68-5.68h123.06
				c3.14,0,5.68,2.54,5.68,5.68v123.05C1526.83,619.6,1524.29,622.15,1521.15,622.15z"/>
			<path class="st6" d="M1680.07,495.9h-95.38c-1.64,0-2.97-1.33-2.97-2.97v-2.23c0-1.64,1.33-2.97,2.97-2.97h95.38
				c1.64,0,2.97,1.33,2.97,2.97v2.23C1683.03,494.57,1681.7,495.9,1680.07,495.9z"/>
			<path class="st6" d="M1680.07,510.15h-95.38c-1.64,0-2.97-1.33-2.97-2.97v-2.23c0-1.64,1.33-2.97,2.97-2.97h95.38
				c1.64,0,2.97,1.33,2.97,2.97v2.23C1683.03,508.82,1681.7,510.15,1680.07,510.15z"/>
			<path class="st6" d="M1680.07,524.39h-95.38c-1.64,0-2.97-1.33-2.97-2.97v-2.23c0-1.64,1.33-2.97,2.97-2.97h95.38
				c1.64,0,2.97,1.33,2.97,2.97v2.23C1683.03,523.06,1681.7,524.39,1680.07,524.39z"/>
			<path class="st6" d="M1680.07,538.64h-95.38c-1.64,0-2.97-1.33-2.97-2.97v-2.23c0-1.64,1.33-2.97,2.97-2.97h95.38
				c1.64,0,2.97,1.33,2.97,2.97v2.23C1683.03,537.31,1681.7,538.64,1680.07,538.64z"/>
			<path class="st6" d="M1680.07,552.88h-95.38c-1.64,0-2.97-1.33-2.97-2.97v-2.23c0-1.64,1.33-2.97,2.97-2.97h95.38
				c1.64,0,2.97,1.33,2.97,2.97v2.23C1683.03,551.55,1681.7,552.88,1680.07,552.88z"/>
			<path class="st6" d="M1680.07,567.12h-95.38c-1.64,0-2.97-1.33-2.97-2.97v-2.23c0-1.64,1.33-2.97,2.97-2.97h95.38
				c1.64,0,2.97,1.33,2.97,2.97v2.23C1683.03,565.8,1681.7,567.12,1680.07,567.12z"/>
			<path class="st6" d="M1680.07,581.37h-95.38c-1.64,0-2.97-1.33-2.97-2.97v-2.23c0-1.64,1.33-2.97,2.97-2.97h95.38
				c1.64,0,2.97,1.33,2.97,2.97v2.23C1683.03,580.04,1681.7,581.37,1680.07,581.37z"/>
			<path class="st6" d="M1680.07,595.61h-95.38c-1.64,0-2.97-1.33-2.97-2.97v-2.23c0-1.64,1.33-2.97,2.97-2.97h95.38
				c1.64,0,2.97,1.33,2.97,2.97v2.23C1683.03,594.28,1681.7,595.61,1680.07,595.61z"/>
			<path class="st6" d="M1680.07,609.86h-95.38c-1.64,0-2.97-1.33-2.97-2.97v-2.23c0-1.64,1.33-2.97,2.97-2.97h95.38
				c1.64,0,2.97,1.33,2.97,2.97v2.23C1683.03,608.53,1681.7,609.86,1680.07,609.86z"/>
			<path class="st6" d="M1680.07,624.1h-95.38c-1.64,0-2.97-1.33-2.97-2.97v-2.23c0-1.64,1.33-2.97,2.97-2.97h95.38
				c1.64,0,2.97,1.33,2.97,2.97v2.23C1683.03,622.77,1681.7,624.1,1680.07,624.1z"/>
			<g>
				<circle class="st6" cx="1552.49" cy="500.89" r="7.12"/>
				<circle class="st6" cx="1552.49" cy="556.9" r="7.12"/>
				<path class="st6" d="M1559.62,612.9c0,3.93-3.19,7.12-7.12,7.12c-3.93,0-7.12-3.19-7.12-7.12c0-3.93,3.19-7.12,7.12-7.12
					C1556.43,605.77,1559.62,608.96,1559.62,612.9z"/>
			</g>
			<rect x="1392.42" y="644.09" class="st6" width="290.61" height="16.62"/>
			<rect x="1392.42" y="672.91" class="st6" width="290.61" height="16.62"/>
			<rect x="1392.42" y="701.74" class="st6" width="152.95" height="16.62"/>
			<path class="st6" d="M1680.82,749.7h-286.19c-1.22,0-2.21-0.99-2.21-2.21v-5.45c0-1.22,0.99-2.21,2.21-2.21h286.19
				c1.22,0,2.21,0.99,2.21,2.21v5.45C1683.03,748.71,1682.04,749.7,1680.82,749.7z"/>
			<path class="st6" d="M1680.82,769.9h-286.19c-1.22,0-2.21-0.99-2.21-2.21v-5.45c0-1.22,0.99-2.21,2.21-2.21h286.19
				c1.22,0,2.21,0.99,2.21,2.21v5.45C1683.03,768.91,1682.04,769.9,1680.82,769.9z"/>
			<path class="st6" d="M1680.82,790.1h-286.19c-1.22,0-2.21-0.99-2.21-2.21v-5.45c0-1.22,0.99-2.21,2.21-2.21h286.19
				c1.22,0,2.21,0.99,2.21,2.21v5.45C1683.03,789.11,1682.04,790.1,1680.82,790.1z"/>
			<path class="st6" d="M1680.82,810.31h-286.19c-1.22,0-2.21-0.99-2.21-2.21v-5.45c0-1.22,0.99-2.21,2.21-2.21h286.19
				c1.22,0,2.21,0.99,2.21,2.21v5.45C1683.03,809.32,1682.04,810.31,1680.82,810.31z"/>
			<path class="st6" d="M1680.82,830.51h-286.19c-1.22,0-2.21-0.99-2.21-2.21v-5.45c0-1.22,0.99-2.21,2.21-2.21h286.19
				c1.22,0,2.21,0.99,2.21,2.21v5.45C1683.03,829.52,1682.04,830.51,1680.82,830.51z"/>
			<path class="st6" d="M1680.82,850.72h-286.19c-1.22,0-2.21-0.99-2.21-2.21v-5.45c0-1.22,0.99-2.21,2.21-2.21h286.19
				c1.22,0,2.21,0.99,2.21,2.21v5.45C1683.03,849.73,1682.04,850.72,1680.82,850.72z"/>
			<path class="st6" d="M1537.89,870.92h-143.9c-0.87,0-1.57-0.7-1.57-1.57v-6.72c0-0.87,0.7-1.57,1.57-1.57h143.9
				c0.87,0,1.57,0.7,1.57,1.57v6.72C1539.46,870.22,1538.76,870.92,1537.89,870.92z"/>
			<g>
				<path class="st6" d="M1470.51,990.8h-70.16c-4.38,0-7.93-3.55-7.93-7.93v-74.69c0-4.38,3.55-7.93,7.93-7.93h70.16
					c4.38,0,7.93,3.55,7.93,7.93v74.69C1478.43,987.25,1474.89,990.8,1470.51,990.8z"/>
				<path class="st6" d="M1572.81,990.41h-70.16c-4.38,0-7.93-3.55-7.93-7.93v-74.69c0-4.38,3.55-7.93,7.93-7.93h70.16
					c4.38,0,7.93,3.55,7.93,7.93v74.69C1580.73,986.86,1577.18,990.41,1572.81,990.41z"/>
				<path class="st6" d="M1675.11,990.02h-70.16c-4.38,0-7.93-3.55-7.93-7.93V907.4c0-4.38,3.55-7.93,7.93-7.93h70.16
					c4.38,0,7.93,3.55,7.93,7.93v74.69C1683.03,986.47,1679.48,990.02,1675.11,990.02z"/>
			</g>
			<g>
				<path class="st6" d="M1681.73,1016.6h-288.01c-0.72,0-1.3-0.58-1.3-1.3v-5.96c0-0.72,0.58-1.3,1.3-1.3h288.01
					c0.72,0,1.3,0.58,1.3,1.3v5.96C1683.03,1016.02,1682.45,1016.6,1681.73,1016.6z"/>
				<path class="st6" d="M1681.73,1032.59h-288.01c-0.72,0-1.3-0.58-1.3-1.3v-5.96c0-0.72,0.58-1.3,1.3-1.3h288.01
					c0.72,0,1.3,0.58,1.3,1.3v5.96C1683.03,1032.01,1682.45,1032.59,1681.73,1032.59z"/>
				<path class="st6" d="M1565.24,1048.59h-171.81c-0.56,0-1.01-0.45-1.01-1.01v-6.55c0-0.56,0.45-1.01,1.01-1.01h171.81
					c0.56,0,1.01,0.45,1.01,1.01v6.55C1566.24,1048.14,1565.79,1048.59,1565.24,1048.59z"/>
			</g>
		</g>
	</g>
	<g>
		<path class="st3" d="M1025.81,709.96H799.45c-6.29,0-11.39-5.1-11.39-11.39V550.25c0-6.29,5.1-11.39,11.39-11.39h226.36
			c6.29,0,11.39,5.1,11.39,11.39v148.32C1037.2,704.86,1032.1,709.96,1025.81,709.96z"/>
		<g>
			<path class="st5" d="M852.22,639.38c0,5.99-0.89,10.65-2.66,13.97c-3.29,6.06-9.55,9.09-18.77,9.09c-5.32,0-9.87-1.44-13.65-4.33
				c-3.77-2.88-5.66-8.01-5.66-15.39v-5.07h9.04v5.07c0,3.87,0.86,6.77,2.59,8.72c1.73,1.95,4.42,2.92,8.07,2.92
				c5.13,0,8.49-1.76,10.07-5.27c0.97-2.16,1.45-6.23,1.45-12.23v-47.31h9.52V639.38z"/>
			<path class="st5" d="M925.3,599.7c4.7,6.28,7.06,14.32,7.06,24.12c0,10.6-2.69,19.41-8.07,26.44
				c-6.32,8.25-15.32,12.37-27.02,12.37c-10.92,0-19.51-3.61-25.76-10.83c-5.57-6.96-8.36-15.76-8.36-26.39
				c0-9.6,2.38-17.82,7.15-24.65c6.12-8.76,15.18-13.15,27.16-13.15C909.99,587.62,919.27,591.64,925.3,599.7z M916.81,644.95
				c3.79-6.08,5.68-13.07,5.68-20.97c0-8.35-2.18-15.08-6.55-20.17c-4.37-5.1-10.33-7.64-17.91-7.64c-7.35,0-13.34,2.52-17.98,7.57
				c-4.64,5.05-6.96,12.49-6.96,22.32c0,7.87,1.99,14.5,5.97,19.9c3.98,5.4,10.43,8.1,19.36,8.1
				C906.9,654.07,913.03,651.03,916.81,644.95z"/>
			<path class="st5" d="M943.57,589.55h30.7c8.37,0,14.32,2.48,17.85,7.44c2.07,2.93,3.11,6.32,3.11,10.15
				c0,4.48-1.27,8.15-3.82,11.02c-1.32,1.51-3.22,2.9-5.7,4.16c3.64,1.39,6.36,2.95,8.17,4.69c3.19,3.09,4.78,7.36,4.78,12.81
				c0,4.58-1.44,8.72-4.33,12.42c-4.31,5.54-11.17,8.31-20.57,8.31h-30.2V589.55z M970.67,619.56c4.1,0,7.29-0.56,9.57-1.69
				c3.58-1.77,5.37-4.96,5.37-9.57c0-4.64-1.9-7.76-5.71-9.38c-2.15-0.9-5.34-1.35-9.57-1.35h-17.34v21.99H970.67z M973.92,652.33
				c5.95,0,10.2-1.71,12.73-5.12c1.59-2.16,2.39-4.77,2.39-7.83c0-5.15-2.33-8.67-6.98-10.54c-2.47-1-5.74-1.5-9.81-1.5h-19.27
				v24.99H973.92z"/>
		</g>
		<path class="st5" d="M1005.9,752.25c-1.42,0-2.77-0.65-3.69-1.85l-34.52-45.07H792.86c-7.11,0-12.89-5.78-12.89-12.89V544.12
			c0-7.11,5.78-12.89,12.89-12.89h226.36c7.11,0,12.89,5.78,12.89,12.89v148.32c0,7.11-5.78,12.89-12.89,12.89h-8.6v42.22
			c0,2.04-1.25,3.78-3.18,4.44C1006.93,752.17,1006.41,752.25,1005.9,752.25z M792.86,534.23c-5.45,0-9.89,4.44-9.89,9.89v148.32
			c0,5.45,4.44,9.89,9.89,9.89h176.32l35.42,46.25c0.68,0.89,1.61,0.66,1.88,0.57c0.27-0.09,1.14-0.48,1.14-1.6v-45.22h11.6
			c5.45,0,9.89-4.44,9.89-9.89V544.12c0-5.45-4.44-9.89-9.89-9.89H792.86z"/>
	</g>
	<g>
		<path class="st3" d="M1551.9,408.98h-226.36c-6.29,0-11.39-5.1-11.39-11.39V249.27c0-6.29,5.1-11.39,11.39-11.39h226.36
			c6.29,0,11.39,5.1,11.39,11.39V397.6C1563.29,403.89,1558.19,408.98,1551.9,408.98z"/>
		<g>
			<path class="st5" d="M1378.31,338.4c0,5.99-0.89,10.65-2.66,13.97c-3.29,6.06-9.55,9.09-18.77,9.09c-5.32,0-9.87-1.44-13.64-4.33
				c-3.77-2.88-5.66-8.01-5.66-15.39v-5.07h9.04v5.07c0,3.87,0.86,6.77,2.59,8.72c1.73,1.95,4.42,2.92,8.07,2.92
				c5.13,0,8.49-1.76,10.07-5.27c0.97-2.16,1.45-6.23,1.45-12.23v-47.32h9.52V338.4z"/>
			<path class="st5" d="M1451.39,298.72c4.7,6.28,7.06,14.32,7.06,24.12c0,10.6-2.69,19.41-8.07,26.44
				c-6.32,8.25-15.32,12.37-27.02,12.37c-10.92,0-19.51-3.61-25.76-10.83c-5.57-6.96-8.36-15.76-8.36-26.39
				c0-9.6,2.38-17.82,7.15-24.65c6.12-8.76,15.18-13.15,27.16-13.15C1436.08,286.64,1445.36,290.67,1451.39,298.72z M1442.91,343.98
				c3.79-6.08,5.68-13.07,5.68-20.97c0-8.35-2.18-15.08-6.55-20.17c-4.37-5.1-10.33-7.64-17.91-7.64c-7.35,0-13.34,2.52-17.98,7.57
				c-4.64,5.05-6.96,12.49-6.96,22.32c0,7.87,1.99,14.5,5.97,19.9c3.98,5.4,10.43,8.1,19.36,8.1
				C1432.99,353.09,1439.12,350.06,1442.91,343.98z"/>
			<path class="st5" d="M1469.66,288.57h30.7c8.37,0,14.32,2.48,17.85,7.44c2.07,2.93,3.11,6.32,3.11,10.15
				c0,4.48-1.27,8.15-3.82,11.02c-1.32,1.51-3.22,2.9-5.7,4.16c3.64,1.39,6.36,2.95,8.17,4.69c3.19,3.09,4.78,7.36,4.78,12.81
				c0,4.58-1.44,8.72-4.33,12.42c-4.31,5.54-11.17,8.31-20.57,8.31h-30.2V288.57z M1496.76,318.59c4.1,0,7.29-0.56,9.57-1.69
				c3.58-1.77,5.37-4.96,5.37-9.57c0-4.64-1.9-7.76-5.71-9.38c-2.15-0.9-5.34-1.35-9.57-1.35h-17.34v21.99H1496.76z M1500.01,351.35
				c5.95,0,10.2-1.71,12.73-5.12c1.59-2.16,2.39-4.77,2.39-7.83c0-5.15-2.33-8.67-6.98-10.54c-2.47-1-5.74-1.5-9.81-1.5h-19.27
				v24.99H1500.01z"/>
		</g>
		<path class="st5" d="M1531.99,451.28c-1.42,0-2.77-0.65-3.69-1.85l-34.52-45.07h-174.83c-7.11,0-12.89-5.78-12.89-12.89V243.15
			c0-7.11,5.78-12.89,12.89-12.89h226.36c7.11,0,12.89,5.78,12.89,12.89v148.32c0,7.11-5.78,12.89-12.89,12.89h-8.6v42.22
			c0,2.04-1.25,3.78-3.18,4.44C1533.02,451.19,1532.5,451.28,1531.99,451.28z M1318.95,233.26c-5.45,0-9.89,4.44-9.89,9.89v148.32
			c0,5.45,4.44,9.89,9.89,9.89h176.32l35.42,46.25c0.68,0.89,1.61,0.66,1.88,0.57c0.27-0.09,1.15-0.48,1.15-1.6v-45.22h11.6
			c5.45,0,9.89-4.44,9.89-9.89V243.15c0-5.45-4.44-9.89-9.89-9.89H1318.95z"/>
	</g>
	<g>
		<path class="st3" d="M2042.16,503.59h226.36c6.29,0,11.39-5.1,11.39-11.39V343.88c0-6.29-5.1-11.39-11.39-11.39h-226.36
			c-6.29,0-11.39,5.1-11.39,11.39V492.2C2030.77,498.49,2035.87,503.59,2042.16,503.59z"/>
		<g>
			<path class="st5" d="M2110.06,433.01c0,5.99-0.89,10.65-2.66,13.97c-3.29,6.06-9.55,9.09-18.77,9.09
				c-5.32,0-9.87-1.44-13.65-4.33c-3.77-2.88-5.66-8.01-5.66-15.39v-5.07h9.04v5.07c0,3.87,0.86,6.77,2.59,8.72
				c1.73,1.95,4.42,2.92,8.07,2.92c5.13,0,8.49-1.76,10.07-5.27c0.97-2.16,1.45-6.23,1.45-12.23v-47.31h9.52V433.01z"/>
			<path class="st5" d="M2183.13,393.33c4.7,6.28,7.06,14.32,7.06,24.12c0,10.6-2.69,19.41-8.07,26.44
				c-6.32,8.25-15.32,12.37-27.02,12.37c-10.92,0-19.51-3.61-25.76-10.83c-5.57-6.96-8.36-15.76-8.36-26.39
				c0-9.6,2.38-17.82,7.15-24.65c6.12-8.76,15.18-13.15,27.16-13.15C2167.83,381.25,2177.11,385.28,2183.13,393.33z M2174.65,438.58
				c3.79-6.08,5.68-13.07,5.68-20.97c0-8.35-2.18-15.08-6.55-20.17c-4.37-5.1-10.33-7.64-17.91-7.64c-7.35,0-13.34,2.52-17.98,7.57
				c-4.64,5.05-6.96,12.49-6.96,22.32c0,7.87,1.99,14.5,5.97,19.9c3.98,5.4,10.43,8.1,19.36,8.1
				C2164.73,447.7,2170.86,444.66,2174.65,438.58z"/>
			<path class="st5" d="M2201.4,383.18h30.7c8.37,0,14.32,2.48,17.85,7.44c2.07,2.93,3.11,6.32,3.11,10.15
				c0,4.48-1.27,8.15-3.82,11.02c-1.32,1.51-3.22,2.9-5.7,4.16c3.64,1.39,6.36,2.95,8.17,4.69c3.19,3.09,4.78,7.36,4.78,12.81
				c0,4.58-1.44,8.72-4.33,12.42c-4.31,5.54-11.17,8.31-20.57,8.31h-30.2V383.18z M2228.5,413.19c4.1,0,7.29-0.56,9.57-1.69
				c3.58-1.77,5.37-4.96,5.37-9.57c0-4.64-1.9-7.76-5.71-9.38c-2.15-0.9-5.34-1.35-9.57-1.35h-17.34v21.99H2228.5z M2231.75,445.96
				c5.95,0,10.2-1.71,12.73-5.12c1.59-2.16,2.39-4.77,2.39-7.83c0-5.15-2.33-8.67-6.98-10.54c-2.47-1-5.74-1.5-9.81-1.5h-19.27
				v24.99H2231.75z"/>
		</g>
		<path class="st5" d="M2062.08,545.88c-0.51,0-1.03-0.08-1.54-0.26c-1.93-0.66-3.18-2.4-3.18-4.44v-42.22h-8.6
			c-7.11,0-12.89-5.78-12.89-12.89V337.76c0-7.11,5.78-12.89,12.89-12.89h226.36c7.11,0,12.89,5.78,12.89,12.89v148.32
			c0,7.11-5.78,12.89-12.89,12.89h-174.83l-34.52,45.07C2064.85,545.23,2063.5,545.88,2062.08,545.88z M2048.76,327.87
			c-5.45,0-9.89,4.44-9.89,9.89v148.32c0,5.45,4.44,9.89,9.89,9.89h11.6v45.22c0,1.12,0.88,1.51,1.14,1.6
			c0.27,0.09,1.2,0.32,1.88-0.57l35.42-46.25h176.31c5.45,0,9.89-4.44,9.89-9.89V337.76c0-5.45-4.44-9.89-9.89-9.89H2048.76z"/>
	</g>
	<g>
		<g>
			<path class="st5" d="M1644.12,1214.88c36.57-63.21,46.34-136.88,27.51-207.44c-18.84-70.56-64.02-129.56-127.23-166.13
				c-63.21-36.57-136.88-46.34-207.44-27.51c-70.56,18.84-129.56,64.02-166.13,127.23s-46.34,136.88-27.51,207.44
				c15.45,57.87,48.63,107.96,94.94,144.28c-4.62,0.26-9.03,2.76-11.52,7.07l-197.19,340.8c-3.93,6.8-1.61,15.5,5.19,19.44
				l53.83,31.15c6.8,3.93,15.5,1.61,19.44-5.19l197.19-340.8c2.49-4.31,2.47-9.38,0.39-13.52c54.57,22.05,114.53,25.85,172.41,10.41
				C1548.54,1323.27,1607.54,1278.09,1644.12,1214.88z M1289.08,1282.58c-54.66-31.62-93.73-82.64-110.01-143.65
				c-16.29-61.01-7.84-124.71,23.79-179.37c31.62-54.66,82.64-93.73,143.65-110.01c61.01-16.29,124.71-7.84,179.37,23.79
				c54.66,31.62,93.73,82.64,110.01,143.65c16.29,61.01,7.84,124.71-23.79,179.37c-31.62,54.66-82.64,93.73-143.65,110.01
				C1407.43,1322.65,1343.73,1314.2,1289.08,1282.58z"/>
			
				<ellipse transform="matrix(0.7071 -0.7071 0.7071 0.7071 -356.4477 1310.1016)" class="st4" cx="1403.21" cy="1085.32" rx="231.99" ry="231.99"/>
			<g>
				<defs>
					
						<ellipse id="XMLID_40_" transform="matrix(0.7071 -0.7071 0.7071 0.7071 -356.4477 1310.1016)" cx="1403.21" cy="1085.32" rx="231.99" ry="231.99"/>
				</defs>
				<use xlink:href="#XMLID_40_"  style="overflow:visible;opacity:0.61;fill:#CCE6FF;"/>
				<clipPath id="XMLID_4_">
					<use xlink:href="#XMLID_40_"  style="overflow:visible;opacity:0.61;"/>
				</clipPath>
				<polygon class="st7" points="1514.95,855.26 1126.2,1018.14 1132.4,1130.4 1614.54,941.38 				"/>
				<polygon class="st8" points="1679.49,956.34 1158.24,1165.06 1205.08,1259.52 1715.64,1059.36 				"/>
				<polygon class="st9" points="1721.26,1089.91 1200,1298.63 1243.1,1348.21 1743.12,1152.22 				"/>
			</g>
		</g>
		<path class="st10" d="M1666.26,1238.87c36.57-63.21,46.34-136.88,27.51-207.44c-18.83-70.56-64.02-129.56-127.23-166.13
			c-63.21-36.57-136.88-46.34-207.44-27.51c-70.56,18.84-129.56,64.02-166.13,127.23c-36.57,63.21-46.34,136.88-27.51,207.44
			c15.45,57.87,48.63,107.96,94.94,144.28c-4.62,0.26-9.03,2.76-11.52,7.07l-197.19,340.8c-3.93,6.8-1.61,15.5,5.19,19.44
			l53.83,31.15c6.8,3.93,15.5,1.61,19.44-5.19l197.19-340.8c2.49-4.31,2.47-9.38,0.39-13.52c54.57,22.05,114.53,25.85,172.41,10.41
			C1570.69,1347.27,1629.69,1302.08,1666.26,1238.87z M1311.22,1306.57c-54.66-31.62-93.73-82.64-110.01-143.65
			c-16.29-61.01-7.84-124.71,23.79-179.37c31.62-54.66,82.64-93.73,143.65-110.01c61.01-16.29,124.71-7.84,179.37,23.79
			c54.66,31.62,93.73,82.64,110.01,143.65c16.29,61.01,7.84,124.71-23.79,179.37c-31.62,54.66-82.64,93.73-143.65,110.01
			C1429.58,1346.64,1365.88,1338.19,1311.22,1306.57z"/>
	</g>
	<g>
		<g>
			<path class="st0" d="M2584.24,875.93h-774.42c-54.11,0-97.98-43.87-97.98-97.98v0c0-54.11,43.87-97.98,97.98-97.98h774.42
				c54.11,0,97.98,43.87,97.98,97.98v0C2682.21,832.06,2638.35,875.93,2584.24,875.93z"/>
			<path class="st5" d="M2570.56,874.44h-774.42c-55.68,0-100.98-45.3-100.98-100.98c0-55.68,45.3-100.98,100.98-100.98h774.42
				c55.68,0,100.98,45.3,100.98,100.98C2671.54,829.14,2626.24,874.44,2570.56,874.44z M1796.14,678.49
				c-52.37,0-94.98,42.61-94.98,94.98c0,52.37,42.61,94.98,94.98,94.98h774.42c52.37,0,94.98-42.61,94.98-94.98
				c0-52.37-42.61-94.98-94.98-94.98H1796.14z"/>
		</g>
		<g>
			<path class="st5" d="M1812.45,779.41h-9.37c-2.95,0-5.34-2.39-5.34-5.34v-9.37c0-2.95,2.39-5.34,5.34-5.34h9.37
				c2.95,0,5.34,2.39,5.34,5.34v9.37C1817.79,777.02,1815.4,779.41,1812.45,779.41z"/>
			<path class="st5" d="M1847.59,779.41h-9.37c-2.95,0-5.34-2.39-5.34-5.34v-9.37c0-2.95,2.39-5.34,5.34-5.34h9.37
				c2.95,0,5.34,2.39,5.34,5.34v9.37C1852.92,777.02,1850.54,779.41,1847.59,779.41z"/>
			<path class="st5" d="M1882.72,779.41h-9.37c-2.95,0-5.34-2.39-5.34-5.34v-9.37c0-2.95,2.39-5.34,5.34-5.34h9.37
				c2.95,0,5.34,2.39,5.34,5.34v9.37C1888.06,777.02,1885.67,779.41,1882.72,779.41z"/>
			<path class="st5" d="M1917.86,779.41h-9.37c-2.95,0-5.34-2.39-5.34-5.34v-9.37c0-2.95,2.39-5.34,5.34-5.34h9.37
				c2.95,0,5.34,2.39,5.34,5.34v9.37C1923.19,777.02,1920.8,779.41,1917.86,779.41z"/>
			<path class="st5" d="M1952.99,779.41h-9.37c-2.95,0-5.34-2.39-5.34-5.34v-9.37c0-2.95,2.39-5.34,5.34-5.34h9.37
				c2.95,0,5.34,2.39,5.34,5.34v9.37C1958.33,777.02,1955.94,779.41,1952.99,779.41z"/>
			<path class="st5" d="M1988.13,779.41h-9.37c-2.95,0-5.34-2.39-5.34-5.34v-9.37c0-2.95,2.39-5.34,5.34-5.34h9.37
				c2.95,0,5.34,2.39,5.34,5.34v9.37C1993.46,777.02,1991.07,779.41,1988.13,779.41z"/>
			<path class="st5" d="M2023.26,779.41h-9.37c-2.95,0-5.34-2.39-5.34-5.34v-9.37c0-2.95,2.39-5.34,5.34-5.34h9.37
				c2.95,0,5.34,2.39,5.34,5.34v9.37C2028.6,777.02,2026.21,779.41,2023.26,779.41z"/>
			<path class="st5" d="M2058.4,779.41h-9.37c-2.95,0-5.34-2.39-5.34-5.34v-9.37c0-2.95,2.39-5.34,5.34-5.34h9.37
				c2.95,0,5.34,2.39,5.34,5.34v9.37C2063.73,777.02,2061.34,779.41,2058.4,779.41z"/>
			<path class="st5" d="M2093.53,779.41h-9.37c-2.95,0-5.34-2.39-5.34-5.34v-9.37c0-2.95,2.39-5.34,5.34-5.34h9.37
				c2.95,0,5.34,2.39,5.34,5.34v9.37C2098.87,777.02,2096.48,779.41,2093.53,779.41z"/>
			<path class="st5" d="M2128.67,779.41h-9.37c-2.95,0-5.34-2.39-5.34-5.34v-9.37c0-2.95,2.39-5.34,5.34-5.34h9.37
				c2.95,0,5.34,2.39,5.34,5.34v9.37C2134,777.02,2131.61,779.41,2128.67,779.41z"/>
			<path class="st5" d="M2163.8,779.41h-9.37c-2.95,0-5.34-2.39-5.34-5.34v-9.37c0-2.95,2.39-5.34,5.34-5.34h9.37
				c2.95,0,5.34,2.39,5.34,5.34v9.37C2169.14,777.02,2166.75,779.41,2163.8,779.41z"/>
			<path class="st5" d="M2198.94,779.41h-9.37c-2.95,0-5.34-2.39-5.34-5.34v-9.37c0-2.95,2.39-5.34,5.34-5.34h9.37
				c2.95,0,5.34,2.39,5.34,5.34v9.37C2204.27,777.02,2201.88,779.41,2198.94,779.41z"/>
			<path class="st5" d="M2234.07,779.41h-9.37c-2.95,0-5.34-2.39-5.34-5.34v-9.37c0-2.95,2.39-5.34,5.34-5.34h9.37
				c2.95,0,5.34,2.39,5.34,5.34v9.37C2239.41,777.02,2237.02,779.41,2234.07,779.41z"/>
			<path class="st5" d="M2269.21,779.41h-9.37c-2.95,0-5.34-2.39-5.34-5.34v-9.37c0-2.95,2.39-5.34,5.34-5.34h9.37
				c2.95,0,5.34,2.39,5.34,5.34v9.37C2274.54,777.02,2272.15,779.41,2269.21,779.41z"/>
			<path class="st5" d="M2304.34,779.41h-9.37c-2.95,0-5.34-2.39-5.34-5.34v-9.37c0-2.95,2.39-5.34,5.34-5.34h9.37
				c2.95,0,5.34,2.39,5.34,5.34v9.37C2309.68,777.02,2307.29,779.41,2304.34,779.41z"/>
			<path class="st5" d="M2339.48,779.41h-9.37c-2.95,0-5.34-2.39-5.34-5.34v-9.37c0-2.95,2.39-5.34,5.34-5.34h9.37
				c2.95,0,5.34,2.39,5.34,5.34v9.37C2344.81,777.02,2342.42,779.41,2339.48,779.41z"/>
			<path class="st5" d="M2374.61,779.41h-9.37c-2.95,0-5.34-2.39-5.34-5.34v-9.37c0-2.95,2.39-5.34,5.34-5.34h9.37
				c2.95,0,5.34,2.39,5.34,5.34v9.37C2379.95,777.02,2377.56,779.41,2374.61,779.41z"/>
			<path class="st5" d="M2409.75,779.41h-9.37c-2.95,0-5.34-2.39-5.34-5.34v-9.37c0-2.95,2.39-5.34,5.34-5.34h9.37
				c2.95,0,5.34,2.39,5.34,5.34v9.37C2415.08,777.02,2412.69,779.41,2409.75,779.41z"/>
			<path class="st5" d="M2444.88,779.41h-9.37c-2.95,0-5.34-2.39-5.34-5.34v-9.37c0-2.95,2.39-5.34,5.34-5.34h9.37
				c2.95,0,5.34,2.39,5.34,5.34v9.37C2450.22,777.02,2447.83,779.41,2444.88,779.41z"/>
			<path class="st5" d="M2480.02,779.41h-9.37c-2.95,0-5.34-2.39-5.34-5.34v-9.37c0-2.95,2.39-5.34,5.34-5.34h9.37
				c2.95,0,5.34,2.39,5.34,5.34v9.37C2485.35,777.02,2482.96,779.41,2480.02,779.41z"/>
			<path class="st5" d="M2515.15,779.41h-9.37c-2.95,0-5.34-2.39-5.34-5.34v-9.37c0-2.95,2.39-5.34,5.34-5.34h9.37
				c2.95,0,5.34,2.39,5.34,5.34v9.37C2520.49,777.02,2518.1,779.41,2515.15,779.41z"/>
			<path class="st5" d="M2550.28,779.41h-9.37c-2.95,0-5.34-2.39-5.34-5.34v-9.37c0-2.95,2.39-5.34,5.34-5.34h9.37
				c2.95,0,5.34,2.39,5.34,5.34v9.37C2555.62,777.02,2553.23,779.41,2550.28,779.41z"/>
			<path class="st5" d="M2585.42,779.41h-9.37c-2.95,0-5.34-2.39-5.34-5.34v-9.37c0-2.95,2.39-5.34,5.34-5.34h9.37
				c2.95,0,5.34,2.39,5.34,5.34v9.37C2590.76,777.02,2588.37,779.41,2585.42,779.41z"/>
		</g>
	</g>
	<g>
		<path class="st5" d="M762.8,1721.99h-21.63h-55.89c-3.46,0-5.95,3.34-4.96,6.66l33.91,113.27c0.66,2.19,2.67,3.69,4.96,3.69h21.98
			h21.63h21.98c2.29,0,4.3-1.5,4.96-3.69l33.91-113.27c0.99-3.32-1.49-6.66-4.96-6.66H762.8z"/>
		<g>
			<path class="st11" d="M806.62,1666.79c2.13-5.63,4.89-11.26,9.51-15.13c4.61-3.87,11.47-5.59,16.8-2.79
				c3.92,2.06,7.98,6.43,11.84,4.27c2.41-1.34,2.94-4.52,3.1-7.27c0.54-8.97,0.42-19.07,6.81-25.38c6.3-6.22,16.49-6.09,25.06-3.9
				c4.05,1.03,8.52,2.39,12.21,0.42c1.97-1.05,3.37-2.91,4.54-4.82c4.11-6.71,6.72-15.31,13.91-18.52
				c11.57-5.16,25.05,7.89,36.95,3.55c4.65-1.7,8.64-5.98,13.57-5.51c2.44,0.23,4.63,1.66,6.32,3.43c5.74,6.01,5.8,16.56,0.08,22.6
				c-7.59,8.02-21.52,6.9-29.2,14.84c-7.38,7.63-6.77,21.46-15.77,27.08c-7.58,4.73-17.81,0.85-26.24,3.84
				c-6.76,2.39-11.17,8.71-15.55,14.39c-4.38,5.68-9.94,11.47-17.1,11.91c-3.76,0.23-7.5-1.08-11.25-0.74
				c-10.79,0.98-16.8,14.62-27.51,16.23c-7.19,1.08-13.34-3.7-18.32-8.27c-1.98-1.81-3.82-3.86-4.53-6.51
				c-0.86-3.18-0.14-6.63,0.56-9.77C803.49,1676,804.9,1671.34,806.62,1666.79z"/>
			<path class="st11" d="M729.26,1644.44c-5.88-4.37-9.44-12.79-5.96-19.24c1.69-3.14,4.71-5.3,7.09-7.96
				c2.38-2.65,4.21-6.45,2.8-9.72c-0.7-1.62-2.08-2.83-3.42-3.99c-4.81-4.17-9.7-8.5-12.73-14.11c-3.03-5.6-3.89-12.81-0.53-18.23
				c2.53-4.09,6.95-6.52,10.79-9.41c3.84-2.89,7.48-7.02,7.16-11.82c-0.4-5.98-6.85-11.42-4.45-16.91
				c2.48-5.69,12.4-5.38,14.02-11.37c0.81-2.98-0.99-5.96-1.73-8.96c-1.65-6.67,2.87-14.25,9.53-15.97
				c6.66-1.72,14.28,2.71,16.08,9.35c1.24,4.59-0.02,9.7,1.8,14.1c2.36,5.71,9.12,8.44,12.08,13.86c5.45,9.97-4.45,21.78-3.62,33.11
				c0.88,11.98,13.68,22.18,10.38,33.73c-1.29,4.52-4.93,8.1-6.19,12.64c-1.5,5.41,0.61,11.06,2.12,16.47
				c1.51,5.41,2.23,11.81-1.4,16.09c-2.68,3.17-7.05,4.28-11.15,4.92c-11.38,1.77-22.69,1.25-33.69-2.19
				C735.06,1647.83,731.96,1646.45,729.26,1644.44z"/>
			<path class="st5" d="M751.73,1750.47c-0.26,0-0.53-0.07-0.77-0.22c-0.68-0.42-0.89-1.32-0.46-2
				c10.45-16.78,23.41-31.75,38.54-44.49c16.66-14.03,35.72-25.12,54.15-35.83l125.17-72.78c0.69-0.41,1.58-0.17,1.98,0.52
				c0.4,0.69,0.17,1.58-0.53,1.98l-125.17,72.78c-18.32,10.65-37.27,21.67-53.74,35.54c-14.89,12.54-27.66,27.28-37.94,43.8
				C752.69,1750.23,752.21,1750.47,751.73,1750.47z"/>
			<path class="st5" d="M755.75,1744.3c-0.78,0-1.43-0.62-1.45-1.41c-2.14-72.79-0.54-172.72,1.18-243.73
				c0.02-0.8,0.67-1.43,1.49-1.42c0.8,0.02,1.43,0.68,1.42,1.49c-1.72,70.98-3.32,170.85-1.18,243.57c0.02,0.8-0.61,1.47-1.41,1.49
				C755.78,1744.3,755.76,1744.3,755.75,1744.3z"/>
			<g>
				<path class="st11" d="M683.57,1705.04c-8.45-0.91-17.03-6.51-18.55-14.88c-1.21-6.67,1.52-15.26-4.02-19.18
					c-1.94-1.37-4.44-1.66-6.81-1.78c-8.6-0.41-18.02,0.72-25.05-4.26c-10.22-7.24-9.2-22.25-10.03-34.74
					c-0.21-3.21-0.75-6.67-3.07-8.9c-2.48-2.38-6.22-2.64-9.56-3.39c-12.2-2.76-21.73-14.56-21.86-27.06
					c-0.04-3.82,0.8-7.84,3.35-10.7c1.73-1.94,4.12-3.19,6.61-3.96c7.93-2.44,17.17,0.21,22.61,6.47c3.4,3.91,5.35,9,9.18,12.49
					c10.82,9.86,28.59,1.76,42.51,6.31c7.78,2.55,14,9.39,15.8,17.38c1.56,6.93,0.05,14.64,3.44,20.88
					c5.82,10.72,21.1,10.12,32.35,14.83c2.71,1.13,5.36,2.74,6.89,5.24c1.19,1.94,1.6,4.25,1.79,6.51
					c0.76,9.15-2.14,18.44-7.56,25.8c-2.43,3.3-5.67,7.12-9.51,8.8c-2.92,1.27-6.34,0.81-9.41,1.55
					C696.3,1704,690.2,1705.76,683.57,1705.04z"/>
				<path class="st5" d="M748.09,1752.56c-0.52,0-1.02-0.28-1.28-0.77c-20.02-37.45-63.37-86.91-84.2-110.68
					c-6.24-7.13-12.7-14.49-20.22-20.44c-6.18-4.89-13.31-9-20.21-12.98c-12.65-7.3-25.73-14.84-33.51-27.47
					c-0.42-0.68-0.21-1.58,0.47-2c0.68-0.42,1.58-0.21,2,0.47c7.39,12.01,19.58,19.04,32.49,26.48c6.99,4.03,14.21,8.2,20.56,13.21
					c7.73,6.11,14.27,13.58,20.6,20.8c20.9,23.85,64.4,73.48,84.58,111.23c0.38,0.71,0.11,1.58-0.6,1.96
					C748.56,1752.5,748.32,1752.56,748.09,1752.56z"/>
			</g>
		</g>
	</g>
	<g>
		<g>
			<path class="st3" d="M2510.97,1039.32c0,0-65.88,123.5-76.46,133.46c-10.58,9.96-159.86,51.05-159.86,51.05l5.9,21.63
				c0,0,184.93,4.29,194.35,0c9.42-4.29,63.7-52.48,63.7-52.48L2510.97,1039.32z"/>
			<g>
				<polygon class="st12" points="2419.99,1780.15 2424.51,1807.28 2458.84,1807.28 2456.86,1776.2 				"/>
				<polygon class="st12" points="2296.51,1774.67 2298.4,1811.62 2329.04,1809.26 2333.59,1774.95 				"/>
				<path class="st13" d="M2561.99,1328c0,0-218.04,72.99-250.54,105.49c-32.5,32.5-19.59,342.46-19.59,342.46h46.63l65.65-255.06
					c0,0,264.28-5.87,292.84-56.05c37.68-66.2,8.91-152.39,8.91-152.39L2561.99,1328z"/>
				<path class="st5" d="M2575.36,1345.19c0,0-181.32,105.61-204.35,140.67c-23.02,35.06,45.64,294.65,45.64,294.65l42.47-4.54
					l10.91-229.17c0,0,235.07-54.19,251.3-104.33c21.41-66.14-20.26-137.82-20.26-137.82L2575.36,1345.19z"/>
				<path class="st13" d="M2334.17,1802.08c0,0-27.76,7.71-40.61,0l-55.61,29.04c-7.53,3.93-12.25,11.72-12.25,20.22v0.6h109.41
					c3.3,0,5.83-2.92,5.36-6.19L2334.17,1802.08z"/>
				<path class="st5" d="M2460.35,1802.08c0,0-27.76,7.71-40.61,0l-55.61,29.04c-7.53,3.93-12.25,11.72-12.25,20.22v0.6h109.41
					c3.3,0,5.83-2.92,5.36-6.19L2460.35,1802.08z"/>
			</g>
			<g>
				<path class="st12" d="M2564.43,1006.3l-20.93-85.3l0,0c-0.03-16.08-3.18-35.3-11.18-57.84c-5.3-14.93-22.33-22.05-36.73-15.45
					l-40.59,18.59c-11.05,5.06-16.97,17.25-14.08,29.06c3.42,13.99,7.5,32.22,8.8,44.42c1.14,10.65,4.08,23.07,11.11,32.3
					c12.29,16.15,33.95,21.63,51.77,13.46l5.06,55.35L2564.43,1006.3z"/>
				<path class="st5" d="M2464.1,934.44c-1.28,0-2.52-0.48-3.48-1.37c-1.19-1.1-1.78-2.66-1.62-4.27l3.23-33.13
					c0.06-0.64,0.64-1.11,1.28-1.05c0.64,0.06,1.11,0.63,1.05,1.28l-3.23,33.13c-0.09,0.88,0.24,1.73,0.89,2.33
					c0.65,0.6,1.52,0.86,2.39,0.71l10.09-1.76c0.64-0.11,1.24,0.31,1.35,0.95c0.11,0.64-0.31,1.24-0.95,1.35l-10.09,1.76
					C2464.7,934.41,2464.4,934.44,2464.1,934.44z"/>
				<g>
					<path class="st4" d="M2488.74,934.37c0,0-12.33,11.23-28.1,15.21C2460.64,949.58,2483.54,963.56,2488.74,934.37z"/>
					<path class="st5" d="M2469.42,947.72c-0.46,0-0.89-0.27-1.08-0.72c-0.25-0.6,0.04-1.28,0.63-1.52
						c12.3-5.07,19.72-13.46,19.8-13.54c0.43-0.48,1.16-0.54,1.65-0.11c0.49,0.42,0.54,1.16,0.11,1.65
						c-0.31,0.36-7.83,8.87-20.67,14.16C2469.72,947.69,2469.57,947.72,2469.42,947.72z"/>
				</g>
				<path class="st5" d="M2455.65,902.01c0,2.78-1.81,5.03-4.05,5.03c-2.24,0-4.05-2.25-4.05-5.03c0-2.78,1.81-5.03,4.05-5.03
					C2453.83,896.98,2455.65,899.24,2455.65,902.01z"/>
				<ellipse class="st5" cx="2478.74" cy="893.76" rx="4.05" ry="5.03"/>
				<path class="st5" d="M2440.18,883.78c0,0,44.86,3.76,64.49-11.28c0,0,0.42,29.83,7.52,34.54c7.1,4.71,28.87-0.08,35.66,30.06
					c0,0,11.95-32.86,6.52-71.28c-5.43-38.42-29.65-56.8-53.04-54.71C2477.94,813.2,2391.68,845.24,2440.18,883.78z"/>
				<g>
					
						<ellipse transform="matrix(0.2327 -0.9726 0.9726 0.2327 1065.1835 3144.0464)" class="st12" cx="2525.07" cy="896.98" rx="20.85" ry="12.23"/>
					<path class="st5" d="M2519.6,905.58c-0.62,0-1.14-0.49-1.17-1.11c-0.63-13.21,9.93-24.03,10.38-24.48
						c0.45-0.46,1.19-0.46,1.65-0.01c0.46,0.45,0.46,1.19,0.01,1.65c-0.1,0.1-10.29,10.55-9.71,22.72c0.03,0.64-0.47,1.19-1.11,1.22
						C2519.64,905.58,2519.62,905.58,2519.6,905.58z"/>
				</g>
			</g>
			<g>
				<path class="st3" d="M2564.46,993.64c0,0,129.92,54.82,153.67,337.88c0,0-56.01,33.96-193.06,14.24c0,0,3.67-30.57,2.39-43.14
					c-1.28-12.56-42.01-204.5-16.49-263.3L2564.46,993.64z"/>
			</g>
			<path class="st5" d="M2512.59,986.71c-0.46,0-0.89-0.27-1.08-0.71c-0.25-0.59,0.03-1.28,0.62-1.53
				c0.18-0.08,13.12-5.83,20.54-26.04c0.22-0.61,0.89-0.92,1.5-0.69c0.61,0.22,0.92,0.89,0.69,1.5
				c-7.82,21.27-21.26,27.15-21.83,27.39C2512.9,986.68,2512.74,986.71,2512.59,986.71z"/>
			<path class="st3" d="M2561.12,1059.65c0,0-40.82,104.45-52.92,120.38c-12.1,15.93-196.56,45.91-196.56,45.91l10.9,29.99
				c0,0,189.19,10.9,212.27,0c23.08-10.9,74.88-48.16,89.42-100.87C2638.77,1102.35,2607.05,1036.02,2561.12,1059.65z"/>
			<path class="st5" d="M2469.04,1261.96c-61.06,0-141.48-4.57-146.56-4.87c-0.64-0.04-1.14-0.59-1.1-1.23s0.56-1.13,1.23-1.1
				c1.89,0.11,189.16,10.76,211.71,0.11c19.56-9.24,73.65-45.25,88.79-100.12c0.17-0.62,0.82-0.99,1.44-0.82
				c0.62,0.17,0.99,0.81,0.82,1.44c-15.37,55.72-70.21,92.24-90.04,101.61C2527.41,1260.72,2500.85,1261.96,2469.04,1261.96z"/>
			<path class="st5" d="M2311.64,1227.11c-0.56,0-1.06-0.41-1.15-0.98c-0.1-0.64,0.33-1.24,0.96-1.34
				c63.64-10.35,186.48-33.16,195.82-45.47c11.86-15.62,52.35-119.05,52.76-120.1c0.24-0.6,0.91-0.9,1.51-0.66
				c0.6,0.24,0.9,0.91,0.66,1.51c-1.67,4.27-41.02,104.79-53.08,120.66c-12.24,16.11-189.75,45.13-197.31,46.36
				C2311.76,1227.1,2311.7,1227.11,2311.64,1227.11z"/>
			<path class="st5" d="M2512.59,1174c-0.62,0-1.14-0.49-1.17-1.11c-0.04-0.82-3.86-82.18,0.01-113.39c0.08-0.64,0.66-1.09,1.3-1.02
				c0.64,0.08,1.09,0.66,1.02,1.3c-3.84,31.01-0.03,112.17,0.01,112.99c0.03,0.64-0.47,1.19-1.11,1.22
				C2512.63,1174,2512.61,1174,2512.59,1174z"/>
			<g>
				<path class="st12" d="M2315.05,1230.97c0,0-22.28-5.16-31.97-1.35c-3.5,1.37-42.79,33.09-42.79,33.09h9.06h49l22.46-11.56
					L2315.05,1230.97z"/>
				<path class="st12" d="M2275.84,1228.22c0,0-18.55-1.4-24.57,0c-6.03,1.4-36.88,15.5-36.88,17.24c0,1.75,3.13,4.16,7.23,3.19
					c4.1-0.96,38.8-10.42,38.8-10.42s-19.76,9.7-22.66,13.79c-2.89,4.1-5.54,10.68-5.54,10.68h36.39l11.92-17.24L2275.84,1228.22z"
					/>
				<path class="st5" d="M2241.81,1263.71c-0.1,0-0.2-0.01-0.3-0.05c-0.53-0.17-0.82-0.73-0.66-1.25c0.05-0.15,1.18-3.67,4.68-7.18
					c3.4-3.4,30.06-21.7,31.2-22.48c0.46-0.31,1.08-0.2,1.39,0.26c0.31,0.46,0.2,1.08-0.26,1.39c-0.28,0.19-27.65,18.98-30.91,22.25
					c-3.16,3.16-4.18,6.33-4.19,6.36C2242.63,1263.43,2242.24,1263.71,2241.81,1263.71z"/>
			</g>
		</g>
		<g>
			<g>
				<g>
					<polygon class="st5" points="2611.15,1534.94 2534.81,1851.94 2541.15,1851.94 2638.39,1533.24 					"/>
					<polygon class="st5" points="2718.38,1534.94 2794.72,1851.94 2788.38,1851.94 2691.14,1533.24 					"/>
					<path class="st14" d="M2544.41,1522.07c0,0,112.08-56.42,165.47-140.82c28.01-44.27,31.28-160.05,54.4-161.82
						c23.12-1.78,44.46,35.57,51.57,76.47s7.11,198.06-44.46,226.18s-229.9,40.57-242.1,35.23S2513.03,1540.19,2544.41,1522.07z"/>
				</g>
				<g>
					<path class="st14" d="M2593.54,1294.36h-792.98c-5,0-9.05-4.05-9.05-9.05l0,0c0-5,4.05-9.05,9.05-9.05h792.98
						c5,0,9.05,4.05,9.05,9.05l0,0C2602.59,1290.31,2598.54,1294.36,2593.54,1294.36z"/>
					<g>
						<polygon class="st14" points="1847,1851.94 1832.99,1851.94 1940.82,1294.36 1954.83,1294.36 						"/>
						<polygon class="st14" points="2547.11,1851.94 2561.12,1851.94 2453.28,1294.36 2439.28,1294.36 						"/>
					</g>
				</g>
			</g>
			<path class="st5" d="M2088.97,1262.71l-91.64-213.84c-0.94-2.21-3.11-3.64-5.51-3.64l0,0c-4.31,0-7.21,4.4-5.51,8.36
				l95.42,222.68h7.24h5.81h213.5c3.74,0,6.78-3.04,6.78-6.78l0,0c0-3.74-3.04-6.78-6.78-6.78H2088.97z"/>
		</g>
	</g>
	<path class="st5" d="M3243.27,1853.58H264.03c-2.21,0-4-1.79-4-4s1.79-4,4-4h2979.24c2.21,0,4,1.79,4,4
		S3245.48,1853.58,3243.27,1853.58z"/>
</g>
<g>
	<g>
		<path class="st15" d="M1509.42,1077.95c0-56.3-45.64-101.95-101.95-101.95s-101.95,45.64-101.95,101.95
			c0,30.57,13.46,57.99,34.77,76.68c1.86-29.36,22.52-53.61,50.09-60.82c-12.7-6.3-21.43-19.39-21.43-34.53
			c0-21.28,17.25-38.52,38.52-38.52s38.52,17.25,38.52,38.52c0,15.14-8.73,28.23-21.43,34.53c27.57,7.21,48.23,31.46,50.09,60.82
			C1495.96,1135.94,1509.42,1108.52,1509.42,1077.95z"/>
		<path class="st3" d="M1424.56,1093.81c12.7-6.3,21.43-19.39,21.43-34.53c0-21.28-17.25-38.52-38.52-38.52
			s-38.52,17.25-38.52,38.52c0,15.14,8.73,28.23,21.43,34.53c-27.57,7.21-48.23,31.46-50.09,60.82
			c17.94,15.73,41.44,25.27,67.18,25.27c25.74,0,49.24-9.54,67.18-25.27C1472.79,1125.27,1452.13,1101.02,1424.56,1093.81z"/>
	</g>
</g>
<path class="st15" d="M2506.81,399.63c-19.41-2.3-37,11.57-39.3,30.98c2.3-19.41-11.57-37-30.98-39.3
	c-19.41-2.3-37,11.57-39.3,30.98c-0.27,2.24-0.31,4.46-0.16,6.63c0.75,58.67,60.86,82.57,60.86,82.57s64.03-9.2,78.46-66.07
	c0.65-2.08,1.13-4.24,1.4-6.48C2540.09,419.53,2526.22,401.93,2506.81,399.63z"/>
</svg>
